<mxfile host="Electron" agent="Mozilla/5.0 (Windows NT 10.0; Win64; x64) AppleWebKit/537.36 (KHTML, like Gecko) draw.io/28.0.6 Chrome/138.0.7204.100 Electron/37.2.3 Safari/537.36" version="28.0.6">
  <diagram name="Page-1" id="dJzZgrs6Wvh1kY7lZUEW">
    <mxGraphModel dx="1246" dy="873" grid="1" gridSize="10" guides="1" tooltips="1" connect="1" arrows="1" fold="1" page="1" pageScale="1" pageWidth="850" pageHeight="1100" math="0" shadow="0">
      <root>
        <mxCell id="0" />
        <mxCell id="1" parent="0" />
        <mxCell id="3WD6q3rGhybUtX1WTeIl-1" value="&lt;font style=&quot;font-size: 23px;&quot;&gt;&lt;b style=&quot;&quot;&gt;High Level Architecture&lt;/b&gt;&lt;/font&gt;" style="text;html=1;align=center;verticalAlign=middle;resizable=0;points=[];autosize=1;strokeColor=none;fillColor=none;" parent="1" vertex="1">
          <mxGeometry x="80" y="30" width="280" height="40" as="geometry" />
        </mxCell>
        <mxCell id="3WD6q3rGhybUtX1WTeIl-4" value="" style="rounded=0;whiteSpace=wrap;html=1;fillColor=none;dashed=1;strokeColor=light-dark(#888686, #ededed);" parent="1" vertex="1">
          <mxGeometry x="170" y="230" width="140" height="550" as="geometry" />
        </mxCell>
        <mxCell id="3WD6q3rGhybUtX1WTeIl-5" value="Sources" style="rounded=0;whiteSpace=wrap;html=1;fontSize=24;strokeColor=none;" parent="1" vertex="1">
          <mxGeometry x="170" y="210" width="120" height="30" as="geometry" />
        </mxCell>
        <mxCell id="3WD6q3rGhybUtX1WTeIl-6" value="" style="rounded=0;whiteSpace=wrap;html=1;fillColor=none;dashed=1;strokeColor=light-dark(#888686, #ededed);" parent="1" vertex="1">
          <mxGeometry x="390" y="230" width="690" height="550" as="geometry" />
        </mxCell>
        <mxCell id="3WD6q3rGhybUtX1WTeIl-7" value="" style="rounded=0;whiteSpace=wrap;html=1;fillColor=none;dashed=1;strokeColor=light-dark(#888686, #ededed);" parent="1" vertex="1">
          <mxGeometry x="1160" y="235" width="140" height="545" as="geometry" />
        </mxCell>
        <mxCell id="3WD6q3rGhybUtX1WTeIl-8" value="Consume" style="rounded=0;whiteSpace=wrap;html=1;fontSize=24;strokeColor=none;" parent="1" vertex="1">
          <mxGeometry x="1170" y="230" width="120" height="30" as="geometry" />
        </mxCell>
        <mxCell id="3WD6q3rGhybUtX1WTeIl-10" value="Data Werehouse" style="rounded=0;whiteSpace=wrap;html=1;fontSize=24;strokeColor=none;" parent="1" vertex="1">
          <mxGeometry x="640" y="210" width="210" height="40" as="geometry" />
        </mxCell>
        <mxCell id="3WD6q3rGhybUtX1WTeIl-11" value="Bronze Layer" style="rounded=0;whiteSpace=wrap;html=1;fillColor=#ffe6cc;strokeColor=#d79b00;" parent="1" vertex="1">
          <mxGeometry x="420" y="270" width="180" height="20" as="geometry" />
        </mxCell>
        <mxCell id="3WD6q3rGhybUtX1WTeIl-13" value="" style="rounded=0;whiteSpace=wrap;html=1;fillColor=none;strokeColor=#d79b00;" parent="1" vertex="1">
          <mxGeometry x="420" y="300" width="180" height="470" as="geometry" />
        </mxCell>
        <mxCell id="3WD6q3rGhybUtX1WTeIl-14" value="" style="rounded=0;whiteSpace=wrap;html=1;fillColor=none;strokeColor=#666666;fontColor=#333333;" parent="1" vertex="1">
          <mxGeometry x="640" y="300" width="180" height="470" as="geometry" />
        </mxCell>
        <mxCell id="3WD6q3rGhybUtX1WTeIl-15" value="Silver Layer" style="rounded=0;whiteSpace=wrap;html=1;fillColor=#f5f5f5;strokeColor=#666666;fontColor=#333333;" parent="1" vertex="1">
          <mxGeometry x="640" y="270" width="180" height="20" as="geometry" />
        </mxCell>
        <mxCell id="3WD6q3rGhybUtX1WTeIl-16" value="Gold Layer" style="rounded=0;whiteSpace=wrap;html=1;fillColor=#fff2cc;strokeColor=#d6b656;" parent="1" vertex="1">
          <mxGeometry x="850" y="270" width="180" height="20" as="geometry" />
        </mxCell>
        <mxCell id="3WD6q3rGhybUtX1WTeIl-17" value="" style="rounded=0;whiteSpace=wrap;html=1;fillColor=none;strokeColor=#d6b656;" parent="1" vertex="1">
          <mxGeometry x="860" y="300" width="180" height="470" as="geometry" />
        </mxCell>
        <mxCell id="3WD6q3rGhybUtX1WTeIl-19" value="CRM" style="image;aspect=fixed;html=1;points=[];align=center;fontSize=12;image=img/lib/azure2/general/Folder_Blank.svg;" parent="1" vertex="1">
          <mxGeometry x="207.82" y="350" width="49.29" height="40" as="geometry" />
        </mxCell>
        <mxCell id="3WD6q3rGhybUtX1WTeIl-20" value="" style="image;aspect=fixed;html=1;points=[];align=center;fontSize=12;image=img/lib/azure2/general/File.svg;" parent="1" vertex="1">
          <mxGeometry x="247.82" y="375" width="24.35" height="30" as="geometry" />
        </mxCell>
        <mxCell id="3WD6q3rGhybUtX1WTeIl-26" value="ARP" style="image;aspect=fixed;html=1;points=[];align=center;fontSize=12;image=img/lib/azure2/general/Folder_Blank.svg;" parent="1" vertex="1">
          <mxGeometry x="200.29000000000002" y="470" width="49.29" height="40" as="geometry" />
        </mxCell>
        <mxCell id="3WD6q3rGhybUtX1WTeIl-27" value="" style="image;aspect=fixed;html=1;points=[];align=center;fontSize=12;image=img/lib/azure2/general/File.svg;" parent="1" vertex="1">
          <mxGeometry x="240.29000000000002" y="490" width="24.35" height="30" as="geometry" />
        </mxCell>
        <mxCell id="3WD6q3rGhybUtX1WTeIl-30" value="" style="endArrow=none;html=1;rounded=0;fillColor=#f5f5f5;strokeColor=#666666;entryX=0.996;entryY=0.795;entryDx=0;entryDy=0;entryPerimeter=0;" parent="1" edge="1">
          <mxGeometry width="50" height="50" relative="1" as="geometry">
            <mxPoint x="180.26" y="629.91" as="sourcePoint" />
            <mxPoint x="299.7399999999999" y="629.7099999999999" as="targetPoint" />
            <Array as="points">
              <mxPoint x="240.26" y="629.91" />
            </Array>
          </mxGeometry>
        </mxCell>
        <mxCell id="3WD6q3rGhybUtX1WTeIl-31" value="&lt;b&gt;Object Type:&lt;/b&gt; CSV file&lt;div&gt;&lt;br&gt;&lt;div&gt;&lt;b&gt;interface:&lt;/b&gt; File in Folder&lt;/div&gt;&lt;/div&gt;" style="text;html=1;align=center;verticalAlign=middle;whiteSpace=wrap;rounded=0;" parent="1" vertex="1">
          <mxGeometry x="174" y="670" width="132" height="30" as="geometry" />
        </mxCell>
        <mxCell id="3WD6q3rGhybUtX1WTeIl-33" value="" style="html=1;verticalLabelPosition=bottom;align=center;labelBackgroundColor=#ffffff;verticalAlign=top;strokeWidth=2;strokeColor=#d79b00;shadow=0;dashed=0;shape=mxgraph.ios7.icons.data;fillColor=#ffe6cc;" parent="1" vertex="1">
          <mxGeometry x="490" y="395" width="42" height="50" as="geometry" />
        </mxCell>
        <mxCell id="3WD6q3rGhybUtX1WTeIl-34" value="" style="html=1;verticalLabelPosition=bottom;align=center;labelBackgroundColor=#ffffff;verticalAlign=top;strokeWidth=2;strokeColor=#666666;shadow=0;dashed=0;shape=mxgraph.ios7.icons.data;fillColor=#f5f5f5;fontColor=#333333;" parent="1" vertex="1">
          <mxGeometry x="711.5" y="350" width="42" height="50" as="geometry" />
        </mxCell>
        <mxCell id="3WD6q3rGhybUtX1WTeIl-35" value="" style="html=1;verticalLabelPosition=bottom;align=center;labelBackgroundColor=#ffffff;verticalAlign=top;strokeWidth=2;strokeColor=#d6b656;shadow=0;dashed=0;shape=mxgraph.ios7.icons.data;fillColor=#fff2cc;" parent="1" vertex="1">
          <mxGeometry x="927" y="350" width="42" height="50" as="geometry" />
        </mxCell>
        <mxCell id="3WD6q3rGhybUtX1WTeIl-38" value="" style="html=1;shadow=0;dashed=0;align=center;verticalAlign=middle;shape=mxgraph.arrows2.arrow;dy=0.6;dx=40;notch=0;fillColor=#dae8fc;strokeColor=#6c8ebf;" parent="1" vertex="1">
          <mxGeometry x="593" y="405" width="60" height="40" as="geometry" />
        </mxCell>
        <mxCell id="3WD6q3rGhybUtX1WTeIl-40" value="" style="html=1;shadow=0;dashed=0;align=center;verticalAlign=middle;shape=mxgraph.arrows2.arrow;dy=0.6;dx=40;notch=0;fillColor=#dae8fc;strokeColor=#6c8ebf;" parent="1" vertex="1">
          <mxGeometry x="1080" y="423.75" width="90" height="40" as="geometry" />
        </mxCell>
        <mxCell id="3WD6q3rGhybUtX1WTeIl-42" value="" style="html=1;shadow=0;dashed=0;align=center;verticalAlign=middle;shape=mxgraph.arrows2.arrow;dy=0.6;dx=40;notch=0;fillColor=#dae8fc;strokeColor=#6c8ebf;" parent="1" vertex="1">
          <mxGeometry x="310" y="410" width="100" height="40" as="geometry" />
        </mxCell>
        <mxCell id="3WD6q3rGhybUtX1WTeIl-43" value="&lt;font style=&quot;font-size: 14px;&quot;&gt;Row Data&lt;/font&gt;" style="text;html=1;align=center;verticalAlign=middle;whiteSpace=wrap;rounded=0;" parent="1" vertex="1">
          <mxGeometry x="470" y="470" width="80" height="20" as="geometry" />
        </mxCell>
        <mxCell id="3WD6q3rGhybUtX1WTeIl-44" value="" style="html=1;shadow=0;dashed=0;align=center;verticalAlign=middle;shape=mxgraph.arrows2.arrow;dy=0.6;dx=40;notch=0;fillColor=#dae8fc;strokeColor=#6c8ebf;" parent="1" vertex="1">
          <mxGeometry x="809.12" y="463.75" width="70" height="40" as="geometry" />
        </mxCell>
        <mxCell id="3WD6q3rGhybUtX1WTeIl-47" value="&lt;font style=&quot;font-size: 14px;&quot;&gt;Cleaned, Standarized Data&amp;nbsp;&lt;/font&gt;" style="text;html=1;align=center;verticalAlign=middle;whiteSpace=wrap;rounded=0;" parent="1" vertex="1">
          <mxGeometry x="645" y="410" width="175" height="60" as="geometry" />
        </mxCell>
        <mxCell id="3WD6q3rGhybUtX1WTeIl-49" value="&lt;span style=&quot;font-size: 14px;&quot;&gt;Business-Ready Data&lt;/span&gt;" style="text;html=1;align=center;verticalAlign=middle;whiteSpace=wrap;rounded=0;" parent="1" vertex="1">
          <mxGeometry x="879.12" y="423.75" width="137.75" height="32.5" as="geometry" />
        </mxCell>
        <mxCell id="3WD6q3rGhybUtX1WTeIl-52" value="" style="endArrow=none;html=1;rounded=0;fillColor=#f5f5f5;strokeColor=#666666;entryX=0.996;entryY=0.795;entryDx=0;entryDy=0;entryPerimeter=0;exitX=0.015;exitY=0.666;exitDx=0;exitDy=0;exitPerimeter=0;" parent="1" edge="1">
          <mxGeometry width="50" height="50" relative="1" as="geometry">
            <mxPoint x="652.9999999999999" y="510.0000000000001" as="sourcePoint" />
            <mxPoint x="795.2299999999999" y="510.22" as="targetPoint" />
            <Array as="points">
              <mxPoint x="735.75" y="510.4200000000001" />
            </Array>
          </mxGeometry>
        </mxCell>
        <mxCell id="3WD6q3rGhybUtX1WTeIl-54" value="&lt;font style=&quot;font-size: 10px;&quot;&gt;&lt;b style=&quot;&quot;&gt;Object Type:&lt;/b&gt;&amp;nbsp;Table&lt;/font&gt;&lt;div&gt;&lt;span style=&quot;font-size: 10px;&quot;&gt;&lt;br&gt;&lt;/span&gt;&lt;div&gt;&lt;div style=&quot;&quot;&gt;&lt;b&gt;&lt;font style=&quot;font-size: 10px;&quot;&gt;Load:&lt;/font&gt;&lt;/b&gt;&lt;/div&gt;&lt;/div&gt;&lt;div style=&quot;&quot;&gt;&lt;ul&gt;&lt;li&gt;&lt;font style=&quot;font-size: 10px;&quot;&gt;Batch Processing&lt;/font&gt;&lt;/li&gt;&lt;li&gt;&lt;font style=&quot;font-size: 10px;&quot;&gt;Full Load&lt;/font&gt;&lt;/li&gt;&lt;li&gt;&lt;font style=&quot;font-size: 10px;&quot;&gt;Truncate &amp;amp; Insert&lt;/font&gt;&lt;/li&gt;&lt;/ul&gt;&lt;span style=&quot;font-size: 10px;&quot;&gt;&lt;b&gt;No Transformation&lt;/b&gt;&lt;/span&gt;&lt;/div&gt;&lt;div style=&quot;&quot;&gt;&lt;span style=&quot;font-size: 10px;&quot;&gt;&lt;b&gt;&lt;br&gt;&lt;/b&gt;&lt;/span&gt;&lt;/div&gt;&lt;div style=&quot;&quot;&gt;&lt;span style=&quot;font-size: 10px;&quot;&gt;&lt;b&gt;Data Model:&lt;/b&gt; None (ais-is)&lt;/span&gt;&lt;/div&gt;&lt;/div&gt;&lt;div style=&quot;&quot;&gt;&lt;span style=&quot;font-size: 10px;&quot;&gt;&lt;b&gt;&lt;br&gt;&lt;/b&gt;&lt;/span&gt;&lt;/div&gt;" style="text;html=1;align=left;verticalAlign=middle;whiteSpace=wrap;rounded=0;" parent="1" vertex="1">
          <mxGeometry x="433" y="540" width="156" height="200" as="geometry" />
        </mxCell>
        <mxCell id="3WD6q3rGhybUtX1WTeIl-58" value="" style="endArrow=none;html=1;rounded=0;fillColor=#fff2cc;strokeColor=#d6b656;entryX=0.996;entryY=0.795;entryDx=0;entryDy=0;entryPerimeter=0;exitX=0.015;exitY=0.666;exitDx=0;exitDy=0;exitPerimeter=0;" parent="1" edge="1">
          <mxGeometry width="50" height="50" relative="1" as="geometry">
            <mxPoint x="875.5199999999999" y="520.0000000000001" as="sourcePoint" />
            <mxPoint x="1017.7499999999999" y="520.22" as="targetPoint" />
            <Array as="points">
              <mxPoint x="958.27" y="520.4200000000001" />
            </Array>
          </mxGeometry>
        </mxCell>
        <mxCell id="3WD6q3rGhybUtX1WTeIl-65" value="&lt;font style=&quot;font-size: 10px;&quot;&gt;&lt;b style=&quot;&quot;&gt;Object Type:&lt;/b&gt;&amp;nbsp;Table&lt;/font&gt;&lt;div&gt;&lt;span style=&quot;font-size: 10px;&quot;&gt;&lt;br&gt;&lt;/span&gt;&lt;div&gt;&lt;div style=&quot;&quot;&gt;&lt;b&gt;&lt;font style=&quot;font-size: 10px;&quot;&gt;Load:&lt;/font&gt;&lt;/b&gt;&lt;/div&gt;&lt;/div&gt;&lt;div style=&quot;&quot;&gt;&lt;ul&gt;&lt;li&gt;&lt;font style=&quot;font-size: 10px;&quot;&gt;Batch Processing&lt;/font&gt;&lt;/li&gt;&lt;li&gt;&lt;font style=&quot;font-size: 10px;&quot;&gt;Full Load&lt;/font&gt;&lt;/li&gt;&lt;li&gt;&lt;font style=&quot;font-size: 10px;&quot;&gt;Truncate &amp;amp; Insert&lt;/font&gt;&lt;/li&gt;&lt;/ul&gt;&lt;span style=&quot;font-size: 10px;&quot;&gt;&lt;b&gt;Transformation:&lt;/b&gt;&lt;/span&gt;&lt;/div&gt;&lt;div style=&quot;&quot;&gt;&lt;ul&gt;&lt;li&gt;&lt;span style=&quot;font-size: 10px;&quot;&gt;Data Cleansing&lt;/span&gt;&lt;/li&gt;&lt;li&gt;&lt;span style=&quot;font-size: 10px;&quot;&gt;Data Standrization&lt;/span&gt;&lt;/li&gt;&lt;li&gt;&lt;span style=&quot;font-size: 10px;&quot;&gt;Data Normalization&lt;/span&gt;&lt;/li&gt;&lt;li&gt;&lt;span style=&quot;font-size: 10px;&quot;&gt;Derived Columns&lt;/span&gt;&lt;/li&gt;&lt;li&gt;&lt;span style=&quot;font-size: 10px;&quot;&gt;Data Enrichment&lt;/span&gt;&lt;/li&gt;&lt;/ul&gt;&lt;/div&gt;&lt;div style=&quot;&quot;&gt;&lt;b style=&quot;font-size: 10px; background-color: transparent; color: light-dark(rgb(0, 0, 0), rgb(255, 255, 255));&quot;&gt;Data Model:&lt;/b&gt;&lt;span style=&quot;font-size: 10px; background-color: transparent; color: light-dark(rgb(0, 0, 0), rgb(255, 255, 255));&quot;&gt; None (ais-is)&lt;/span&gt;&lt;/div&gt;&lt;/div&gt;&lt;div style=&quot;&quot;&gt;&lt;span style=&quot;font-size: 10px;&quot;&gt;&lt;b&gt;&lt;br&gt;&lt;/b&gt;&lt;/span&gt;&lt;/div&gt;" style="text;html=1;align=left;verticalAlign=middle;whiteSpace=wrap;rounded=0;" parent="1" vertex="1">
          <mxGeometry x="657" y="550" width="163" height="200" as="geometry" />
        </mxCell>
        <mxCell id="3WD6q3rGhybUtX1WTeIl-66" value="&lt;font style=&quot;font-size: 10px;&quot;&gt;&lt;b style=&quot;&quot;&gt;Object Type:&lt;/b&gt;&amp;nbsp;Table&lt;/font&gt;&lt;div&gt;&lt;span style=&quot;font-size: 10px;&quot;&gt;&lt;br&gt;&lt;/span&gt;&lt;div&gt;&lt;div style=&quot;&quot;&gt;&lt;span style=&quot;font-size: 10px;&quot;&gt;&lt;b&gt;No Load&lt;/b&gt;&lt;/span&gt;&lt;/div&gt;&lt;/div&gt;&lt;div style=&quot;&quot;&gt;&lt;span style=&quot;font-size: 10px;&quot;&gt;&lt;b&gt;&lt;br&gt;&lt;/b&gt;&lt;/span&gt;&lt;/div&gt;&lt;div style=&quot;&quot;&gt;&lt;div&gt;&lt;span style=&quot;font-size: 10px;&quot;&gt;&lt;b&gt;Transformation:&lt;/b&gt;&lt;/span&gt;&lt;/div&gt;&lt;div&gt;&lt;ul&gt;&lt;li&gt;&lt;span style=&quot;font-size: 10px;&quot;&gt;Data Integrations&lt;/span&gt;&lt;/li&gt;&lt;li&gt;&lt;span style=&quot;font-size: 10px;&quot;&gt;Aggregations&lt;/span&gt;&lt;/li&gt;&lt;li&gt;&lt;span style=&quot;font-size: 10px;&quot;&gt;Business Logics&lt;/span&gt;&lt;/li&gt;&lt;/ul&gt;&lt;/div&gt;&lt;/div&gt;&lt;div style=&quot;&quot;&gt;&lt;b style=&quot;font-size: 10px; background-color: transparent; color: light-dark(rgb(0, 0, 0), rgb(255, 255, 255));&quot;&gt;Data Model:&lt;/b&gt;&lt;/div&gt;&lt;/div&gt;&lt;div style=&quot;&quot;&gt;&lt;ul&gt;&lt;li&gt;&lt;span style=&quot;font-size: 10px;&quot;&gt;Star Schema&lt;/span&gt;&lt;/li&gt;&lt;li&gt;&lt;span style=&quot;font-size: 10px;&quot;&gt;Flat Table&lt;/span&gt;&lt;/li&gt;&lt;li&gt;&lt;span style=&quot;font-size: 10px;&quot;&gt;Aggregated Table&lt;/span&gt;&lt;/li&gt;&lt;/ul&gt;&lt;/div&gt;&lt;div style=&quot;&quot;&gt;&lt;span style=&quot;font-size: 10px;&quot;&gt;&lt;b&gt;&lt;br&gt;&lt;/b&gt;&lt;/span&gt;&lt;/div&gt;" style="text;html=1;align=left;verticalAlign=middle;whiteSpace=wrap;rounded=0;" parent="1" vertex="1">
          <mxGeometry x="874" y="550" width="156" height="200" as="geometry" />
        </mxCell>
        <mxCell id="3WD6q3rGhybUtX1WTeIl-67" value="" style="endArrow=none;html=1;rounded=0;fillColor=#ffe6cc;strokeColor=#d79b00;entryX=0.996;entryY=0.795;entryDx=0;entryDy=0;entryPerimeter=0;exitX=0.015;exitY=0.666;exitDx=0;exitDy=0;exitPerimeter=0;" parent="1" edge="1">
          <mxGeometry width="50" height="50" relative="1" as="geometry">
            <mxPoint x="438.8899999999999" y="520.0000000000001" as="sourcePoint" />
            <mxPoint x="581.1199999999999" y="520.22" as="targetPoint" />
            <Array as="points">
              <mxPoint x="521.64" y="520.4200000000001" />
            </Array>
          </mxGeometry>
        </mxCell>
        <mxCell id="3WD6q3rGhybUtX1WTeIl-69" value="" style="image;aspect=fixed;html=1;points=[];align=center;fontSize=12;image=img/lib/azure2/analytics/Power_BI_Embedded.svg;" parent="1" vertex="1">
          <mxGeometry x="1180" y="342" width="51" height="68" as="geometry" />
        </mxCell>
        <mxCell id="3WD6q3rGhybUtX1WTeIl-70" value="" style="sketch=0;html=1;aspect=fixed;strokeColor=none;shadow=0;fillColor=#3B8DF1;verticalAlign=top;labelPosition=center;verticalLabelPosition=bottom;shape=mxgraph.gcp2.big_query" parent="1" vertex="1">
          <mxGeometry x="1190" y="490" width="80" height="80.81" as="geometry" />
        </mxCell>
        <mxCell id="3WD6q3rGhybUtX1WTeIl-72" value="" style="verticalLabelPosition=bottom;aspect=fixed;html=1;shape=mxgraph.salesforce.analytics;" parent="1" vertex="1">
          <mxGeometry x="1231" y="351.2" width="60" height="58.8" as="geometry" />
        </mxCell>
        <mxCell id="3WD6q3rGhybUtX1WTeIl-76" value="&lt;span style=&quot;text-wrap-mode: nowrap; background-color: rgb(255, 255, 255);&quot;&gt;BI &amp;amp; Reporting&lt;/span&gt;" style="text;html=1;align=center;verticalAlign=middle;whiteSpace=wrap;rounded=0;" parent="1" vertex="1">
          <mxGeometry x="1190" y="415" width="80" height="30" as="geometry" />
        </mxCell>
        <mxCell id="3WD6q3rGhybUtX1WTeIl-77" value="&lt;span style=&quot;text-wrap-mode: nowrap; background-color: rgb(255, 255, 255);&quot;&gt;Ad-Hoc&lt;/span&gt;&lt;div&gt;&lt;span style=&quot;text-wrap-mode: nowrap; background-color: rgb(255, 255, 255);&quot;&gt;SQL Queries&lt;/span&gt;&lt;/div&gt;" style="text;html=1;align=center;verticalAlign=middle;whiteSpace=wrap;rounded=0;" parent="1" vertex="1">
          <mxGeometry x="1190" y="570.81" width="80" height="30" as="geometry" />
        </mxCell>
        <mxCell id="vRciWjVbwueQEASU_ol6-1" value="" style="shape=image;verticalLabelPosition=bottom;labelBackgroundColor=default;verticalAlign=top;aspect=fixed;imageAspect=0;image=data:image/png,iVBORw0KGgoAAAANSUhEUgAAAgAAAAIACAYAAAD0eNT6AAAAAXNSR0IArs4c6QAAIABJREFUeAHtnQfYHUXVxw/pkEIqoYRepIRPioAUE4ghjTSpUkWlSlVQEEISEAWlgyJFUFBU+CyIgIKCStEPROlIDc1GFUERbPvd/8vdZLPvLbt7zu7O7P7neZJ37727szO/OTtzdubMOSJMJEACJEACJEACJEACJEACJEACJEACJEACJEACJEACJEACJEACJEACJEACJEACJEACJEACJEACJEACJEACJEACJEACJEACJEACJEACJEACJEACJEACJEACJEACJEACJEACJEACJEACJEACJEACJEACJEACJEACJEACJEACJEACJEACJEACJEACJEACJEACJEACJEACJEACJEACJEACJEACJEACJEACJEACJEACJEACJEACJEACJEACJEACJEACJEACJEACJEACJEACJEACJEACJEACJEACJEACJEACJEACJEACJEACJEACJEACJEACJEACJEACJEACJEACJEACJEACJEACJEACJEACJEACJEACJEACJEACJEACJEACJEACJEACJFA/AmNEZAcROUxELhSRn4nIvSLylIi8LCJvN/+92vzuARH5iYh8SUSOEJEpjWPkwUQCJEACJEACJOAwgWWbg/ZZIvKQiAQG//4rIveLyLkiMktEcA8mEiABEiABEiABBwhsJyJXisibBgN+N6XhryJyWWM2YaKILONA3VkEEiABEiABEqgVgeVE5EgRebiAQb+dUoClhENEZGCtyLOyJEACJEACJFACgQEi8jER+WOJA39cIfiDiHyCywMlSANvSQIkQAIkUAsCHxSRRQ4N/HFFAGWDnQATCZAACZAACZCAAYEVReRahwf+uCKAsq5mUG9mQQIkQAIkQAK1JYC3fmzZiw+yrn/G1sK5tW01VpwESIAESIAEMhLoKyKnezjwxxWTi0UEdgtMJEACJEACJEACXQiMaDrkiQ+mvn6+XURQJyYSIAESIAESIIE2BNYSkccr8OYfV1YeFJFV2tSZX5MACZAACZBArQmsLiLPVHDwD5UB1G29WrcwK08CJEACJEACMQLjROTJCg/+oRLwPHcIxFqeH0mABEiABGpLYJSIPFaDwT9UArAcQJuA2oo7K04CJEACJBAS+F6NBv9QCYBhIHcHhBLAvyRAAiRAArUj8L4aDv6hEnBO7VqbFSYBEiABEiCBJoEr8lYARg8dGHxgq1WD+buND75x1DbBbadODh44Z0aw6MLZPf8eOnen4Befmdzz24LdNw5mbzEuGD1sYDhI5/kXoYbpLIiPAgmQAAmQQC0JIKKe+SA7bLn+wf47rBXccOL2wbMXzwmev2Ruqn/PXTw3uO7TE3vyGD54gHn5InWGx8BVa9nyrDQJkAAJkECtCfw9MhiqB1q87S/cY+Pg8S/OSjXgd1IQHrtgVjB/942DscMHqcvXpq7fr7UEsPIkQAIkQAK1JPB6m0Ex1WDbr88yweHT1wsevWCm2cAfVwqQ98FT1gn69e2TqmwJ67dTLVuflSYBEiABEqgtgXsSDpBtB911VhwaXH/CxNwG/rgicOO87YM1VhjctjwZ64OlkGVrKwWsOAmQAAmQQO0InJJxwOwZgCdtPDb43fn5vfXHB//wM+45ZZOVrJWAo2rX+qwwCZAACZBAbQnA/e+bWZSAfSasETxzUXoDv3AQ1/7FvffcbnVLJeD3IjKwtpLAipMACZAACdSOwPFpFYA9tl09gKW+dhDXXo8yGCsBB9Wu9VlhEiABEiCB2hJYRkQuSaoE4M0/y9Y+7WDf7nrMBBguBzwhIuDBRAIkQAIkQAL1IPDhSWvdMHTZ/m2n1PHbqXv+T+lv/a0UAdgEGBoGwjsiEwmQAAmQAAlUn8AT508f9vwlc1/FQPrZvd4dzNx8lWDj1YcH715jRDDrPasEp+2zSQCPfa0GX1e+w+4Aoy2Cl1a/xVlDEiABEiABEhCR5y6Zc6wrA7mmHAftuE7bGYykSxwi8hq3BPKxIAESIAESqAWB5y+e+6Bm4HXlWsxgjBlm4jGQjoFqIfmsJAmQAAnUmMBzl+y8hSsDuEU55u063mIW4MwaiwSrTgIkQAIkUAcCz13ygbMtBl5X8oDLYIMAQvfWoe1ZRxIgARIggRoTeP6SDzzkyuBtVY79tl9TOwvwHxEZXWOxYNVJgARIgAQqRmC8iJwrIg+JyN+WWUb+vt7KQ4OPvn/t4KcLJjlt5Z9GOfjB8RO0CgCu37Fibc/qkAAJkAAJ1JDAABH5kojgzbbl4Ni3zzLB/jusFSy6cLb3igA8BI5qhCZuV9eE3x9eQzlhlUmABEiABCpEAIP/LQkHvWC79cdUQgmA/4KkdW5z3vkVkgFWhQRIgARIoIYE8OafajD88KS1vJ8FmL/7xqnq3ILRTTWUFVaZBEiABEigIgSw5v/vFoNbx8ERywG3LHy/10rAFUds3bGOCZjcXxEZYDVIgARIgARqSAAGf5kGwgMnr+21AnDbqZMz1TvCa1EN5YVVJgESIAESqAiBhyMDWqoB8V2rDPNaAbj/7Bmp6tuC00sVkQFWgwRIgARIoIYE3mgxsCUaGIcM6ue1AvDUhbMT1bMDn7dqKC+sMgmQAAmQQEUIvN1hgOs6QPq8JdBAAQA7JhIgARIgARLwksArGgXgwXNmeDsLYLAE8LKXLc5CkwAJkAAJkICIPKtRAG4/dUdvFQADI8CnKUEkQAIkQAIk4CuBzEaAUBy+ftTW3ioABtsAH/S10VluEiABEiABErhZMwOwcI+NvVUADBwB/YjiQwIkQAIkQAK+EkjtBTCqMMzeYpy3CsDMzekK2FehZblJgARIgAT0BI6ODuhpj0cPHRggsE6aSHwunGsUDOgIPX7mQAIkQAIkQALlEJiedtCPn//DT0/0TgG41iYc8NRymox3JQESIAESIAE9gZGdQgDHB/tWnxEi2IW3+jRl2Hfiml19HLSqa+Q7hE0ersfPHEiABEiABEigPAIIapN5QBw+eEDw2AWzvFECHr1gZoAya+osIr8tr7l4ZxIgARIgARKwIYC49qoBERb1ad7Ayzz3xF02UtW1yQpBlJhIgARIgARIwGsCc7QKwNjhgwK8WZc5sCe59+/OnxmMGTbIQgGY6XWLs/AkQAIkQAIkICKDROQvWiXgkKnrOq8AIISxtp4i8qqIDKDkkAAJkAAJkEAVCFymHRj79e0T3Dhve2eVgBtP3D7o12cZCwXgK1VocNaBBEiABEiABEBgslYBwPVrrDA4wDR7kun4Is955LydgtXHDLYY/JEHWDGRAAmQAAmQQCUI9BWRxy2UgCmbrBQ8c9EcZ5SApy+aE+z4PytaDf6PiMgylWhxVoIESIAESIAEmgQOtlAAkMde71vDCQ+B8Pj3we1Wtxr8kc8BlBYSIAESIAESqBqBgSLyRyslYLetVwvw9l3kVH/0XpiF2HvCGpaD/wtNg8mqtTvrQwIkQAIkQALySSsFAPlgOaAMmwCs+RtO+4dKBOImMJEACZAACZBAJQlgFuBJSyUAhoFF7g6Atb+hwV84+D8mIv0r2eKsFAmQAAmQAAk0Ccy2VACQF7bffWTS2rnOBsAd8cdnrR/079cnHLQt/9LxDx8PEiABEiCBWhC40VoJQH7wwnfSbuNNvQbCA+G8XccHo4cNtBzwo3n9sBYtzkqSAAmQAAmQgIisIiIv56EEIE8E4/nQDmsFPzh+QqbdArDuR0jf/bZfM1h+uf7Rwdr6+EURWZESQQIkQAIkQAJ1IjA3LwUgmu+ooQODWe9ZJUBAoSuP3Dr4+SmTgwfOmREsunB2zz8c4zv8Nn+38cHMzVcJcE00jxyPwYCJBEiABLwksIKI7NroIBeIyLdE5Dcisqjpz/yfIoJ/8G2O7/DbN0VkvojsIiK4lqneBL6c4+Ba1CCe9T5frHfTs/YkQAI+EniPiJzdGMQfbAzm/1V04Lj2ARE5S0SQJ1P9CCDozS0KGco6+JZ93U9EpF/9mps1JgES8JHAUBE5VkTgqjSvzvNhETmmoRDgXkz1ITBcRND2ecmVa/k+KiIj6tO8rCkJkICvBEY2fJOf3JzGL6ojfaUBayE7SV9FJlO531sjBeBm+vvPJCO8iARIoCACCEiyn4jAPWlRA3/8PlAEjhKRPgXVmbcphwBk7foS5Swud0V8xkwXEwmQAAk4R2CdRkjSOxzqkG8XkbWdo8QCWRH4mEOyVsTgj3u8LSKbWwFkPiRAAiRgQeADjbfuvzjYIf9VRPawqCDzcIrA+iLydwflrQhF4AnauzgliywMCdSWAKbZYY1fRMenuccZXD+tjIzC9/2vPZA5jbx2u/byyrQmK0ICJOAlAWxHQkfUrbNy5fdvMHCKl3IWL/SpHslcnrK/ZxwMP5MACZBAEQTwFuajARb8pzN6WhESks89thGRf1MB6FG6seS2Rj6YmSsJkAAJtCYA6+uvedwJX8UdAq0b1vFvB4vI4x7LXR6zAXdRoXVcalk8EqgYAR/W/Lt1tp+vWJvUoTqXcfBvudx2Sh0an3UkARIon8DuFemE4U545/JxsgQJCWCXSTelzpff4RXzWsP6YElkQkKOPI0ESIAEMhHAnvrXDDuusjtsrKGulYkELyqSAII//dlzufuHiFzT8JMxubkbBQa0dxrW6XkRGVVko/BeJEAC9SGAdX+XnPxYKQ+/4PZAp4UYcnej4UBpJTfd8sEM0/0igu2nO4rIsi0ow4DPUqH+Tot78CsSIAESUBP4iIedcLdOOvwdrouZ3CTgkre//zSCTr3RfA7eEpGXROSpZrhq+Om/oOEC+1AR2UFERifECSdVoRxa/D0w4X15GgmQAAkkIoDAPujsLDqopfIYOGRosPGMXYI5J58XHHz1LcFxtz8eLLj/hZ5/OMZ3c04+N9h4xs7BwMFDlrrWsDyYXl4+EQmeVCSBdxl7+9OEoIbswbV0HsnSlwa8I26QRyGZJwmQQD0JIKqf6eA7ao21g7mfuSA46Td/CE55+NVE/3Du3FPOD0atvrZpWZp1O6meTetsra29/WGp559KOcZzkEcaIiKPKcsWfSbuE5GBeRSUeZIACdSLwDDLkL79Bw0Kpn7yM8HCB15MNOi3Ug4wQzDlmJODfgMHRjs97fHLIoKOmMkNAp8xHBBfFJH9DfKbmCMaBPhBoB+tHIfXn5tjWZk1CZBATQgca9Up4c398GvvzDzwx5WBA795czBk9Aphh2fx9xM1aVPXq2nt7W9O0xhPIyOYWs/7rdrsWRMRLHfMcL2hWT4SIAG3CWDPsqbj7Ll2pQ3+p2d9Pz6Iaz8fe+tDwdj1NlSXr1nHB91uilqUbmjTsM6qTb/SpPYbpRzDyC/vhMBaNynLGeX2goismHehmT8JkEA1CbzHojPCmz8M+rSDfbvrj7nlQcuZgE2r2ZTe1MrS29+TzWUdGLHCgj86OKY9Pr4gghiwMXCnLV+786FQYCslEwmQAAmkInC2tiPCmr/ltH87JeDAq24K+g0wsQn4QipCPNmSgKW3v3813qa3bhYOHh/bDZBJv9/SsqJd8sLUvXbHQrReWFpgIgESIIFUBDAlHu1IUh/D4K/doG39/aTDj09dvhb1uzcVIZ5sRQBvvpZbTaP+8b/Yop3TyAo8Rva1qmjCfGDEl6aMnc6FcSGMDJlIgARIIBEBuF9VvYVgq5/G2j+tgjDv189bLAVgqjipE5dEIHlSVwLW3v7ujkXI09qxwG9/0QkGh9jO12lgT/Mbthlyl0vRrcj7kYCnBHbVdj7Y5592ENeeP/OkM9N0iu3OZZCgYoXW0tsfrPXhQChMK2vluLEN9sgws4L/wqEP6tNOTtN+D4dDTCRAAiTQlcBCTccDD39pnPxoB/7w+nn3/N7CYyCdAnUVD7MT1jce5A6JlWwfjRw3rx0fy7PIjwcZlD+qKOxVZOF5LxIgAT8JfFPT8cC9bzgoF/13/PQPRDu8LMff8LPJvCu1tbe/G1pYvGt3FcBNdNlW9Ajyk0WOW12D4EMIQsREAiRAAm0J3KPpdODbv+iBP7zf7IXntOr40nyHNWSm/AlYe/trtef9GY0cN5YTvpU/hq53GCEizynrEZV/hCFGOGImEiABEmhJQNVxIohPOCAX/RceApWd5aKWRPilJQFrb3+wWYmntZVyADk6IJ5pSZ/fJyL/NqhP+GzkFdegJDy8LQmQgCUB+MYPO4vUf4+/44nSFIDjbn8sdXljdcV2NKb8CMDbH5z0aNspvD709hcvMULjhudk/QslwpWErY1Z6xG/DsrEBFcqxnKQAAm4RUAVmGTBfX8uTQGYf++f4p1d2s+I9c6UHwHL8LdPiQgUilYJ0/dp2z56/rOtMi3xO0zb36GsU7R+z4vIqBLrw1uTAAk4SgCe1KKdRapjzxUA1J0pHwIIzJNKljqcH/X2Fy8tDPf+1OHaJGWAAaFraVXL6Jwi8l3XKsjykAAJlE/gdU3n6fkSAPZel235Xb4E2JcgT29/8dJi616SQb7TOXvHM3Xk8x4GdYvWG1sNmUiABEhgMYE/aDqZg77909KWAAyMANE5wur6vOY6adFuYBc3QoUO8vb2F0cF5z3RQS7LMZwIuZosl1Gg8MLpEBMJkAAJ9BD4taYDnXPyuaUpALMWnJ2ls+90DfaCXyQiU2IuZikqyQnk6e2vVSngvrdTm3b7De6DXU5w6wv3vt3qkfR3uB2G+2EmEiABEpDvaTqXjWfsXJoCsNHUOUk7vSznvdJwpPI1EZklIoMoJ4kIwDWvpUvbQ7vcFTM2COCTpX3DaxBAyPWEAD8qY90YIwQgYiIBEiABUTlpGbDc4ADBeYr2AQBXwLh3rGPL6zMGtR+KyH4dLNHrLkqwXL/LsD1+nMA+A6F7tW2O0MQ+JIT61dY1vB7Bv6DYMpEACdScwG7ajmXuKecXrgAYeAEMO8O0f98Uke839rfD9/zwmstOtPoqRTImgy82lmJaefuL3g/Hx8WuS9uWiAg5Mp6po59hW3GTsr5RPi8kZOwoDhaLBEjAgsAq2k5l1OprBwvuf6EwJQBbD0eMWyPamZV1jGnZHzW9yI2xaAxP87D29jc3IQftgAg32D4lKEUYuK3kHfz6+ASAZSUBErAn8Ki2U5lyzMmFKQCTjz7JqgO0zAce124VkcNEBEpVXVJR3v7iPGHIprU3+EI8Uw8+zxARTOFbyS6WFphIgARqTOAsbYfSb+DAANvy8rYFOOCqHwf9Bgy06vzyzOfhhjwh1PJ6FZcry21qnbz9xTFO1MqsiEyLZ+rJZxjxWcnuPxuzWFt5Um8WkwRIIAcC77XoUIaMXiE45pYHc1MCPvmzR4KhK6xo1fEVmU+oDGyYQ9uVmaWltz+sx6fxWY8gN5o2xPINttj5mDD7ca+y/lF2T9C41UcxYJlJwIYADIwet+hQxq63YXDsrQ+ZKwFQLFZYd4Nop+XrMZQBBHvZxKbpSsvF2tsfjAjTpNuV8orrfU5w6KNdAok+Q5jJYSIBEqgpgU8oO9TFnclyI0YFH7niejMl4MCrbgowu2BVPofyQShmeCHcLsGWN5fEEgrj9YYcYYzXP0UFBxvsi8fyjO8Jrn0tn4u9fAfC8pMACWQjMEJEXrPqULBOP+nw4wPs189qFwBrfxj8ebLmr+2IEbENygDWtl13SVy0t7+4RGPtXssbnKuQvmPAImSJ53+NKkBhHUiABNITsNzL3dOp4M195klnplIEoDRgn/+IcauHHVPd/mKr18WOuiQu2ttfKymG9b5GJjB1XhV3uFDcEc9CwyN67Z0iAqdOTCRAAjUjgM7kJcPOZHHHAq9946d/IID//oO+9ZPguNsfC/CGj384xnez5p8VjJ82t0gPf4vLl0edjfJ8temSeLYDLokxTa+KHRFjckPGpQ8sGWjaDvvfq5RgPIltqBom0Wtho8JEAiRQQwIHG3Yk0U6Fx/oOGl4IQ5fEw0qQzVMNZQOKZhJvf/FqwvuidrCDB8GqJQzaVs8YdmTsUDVArA8JkEB3AvAMprWwtuqILPNBnbBt7QoRwVu1Zd5l5BW6JN63IJfEZXn7i0ssfPdreW8Rz7QCnzFtj+l7LZvweiwr+OImuQLNxyqQgDsE1haRvxl2JmGnUtbf10VkrQheTGVPFZFLRAR+58sql9V9Q5fEB4pIHi6Jy/L2F2myxYcXKNsL0QNdN7JcXNmUBzDg00ZHjMokDAyZSIAEakjgg8qONtqRlH28R4f2w4wHtuHBAh+W+GWXVXt/TN/e0RgIjjJ0SVyWt79WzfaIso0QyKnKaVcln7j8QalkIgESqCGBM4w7k3jnUsTnL6VoN+xvh1dE1BtuaYsoX573gM/4XzZmc+Dvfc0UHKKnIjCPVRmxdo+lhKxpJQM/+EdmvblH11kqbNgxAadDTCRAAjUjgAHxIsMBwGogSZPPb0RkQMZ226hxHRzGaK3O05Q3z3PTuiReQUT+bNj+WuvyvQ3KgjateoKjJHWArwjrB0Vk2apDY/1IgAR6E8AU+dcjnUGeA1Reead1M9ubwjs2BJhWx/S6ZTS2vOrcLV/McHTyQmjt7Q+KWBpvf63a4DKlHMK/AupVh7SZgbfEqAwhABETCZBADQnAwvjbys432pkUfaydeo43OQwKMa3+qwopA3Cug+WPcIAs29tfnDk+P62UwW+2yrTC3x2j5BV9TqH0IhQxEwmQQA0JYGA4qfEPRmbRjsGX4zShZtM07yoickTDhe/PDPanu8AShpAXGgeagTKhTVC6tHwO0BbCs+vxzMLpkZZbeD1mULL4bvAMG4tLAiTQjgD8sL9i2KmEnUsRfzGFnGcaJSL7NZ31YGteEXVy/R4/jswqaNjDGl1b16yGkJpyl30t7Dj+ZMAuZH9zI5ollgWZSIAEakoAfgKwFh52Cj79hSOZIhLcKkMZuFZE4LTHJ0ZWZc3q7a9V+2D6XlMuLB/UNWHq3tJuBctfTCRAAjUmgLeAQ/KKHaDs7DsNFJaDUtLmHyIiuze2U10tIm/kWLdO9S7jN2whtEiYyta+xeY9+2NRzzzzgBGflQxgdmvzPAvLvEmABPwgsHzD4cylhp2LVSfVKZ8bjaals7TQoIq5JG7H2XLAxda9dvdJ+j22ENY5IfrhvQYcQ96PiQgUWyYSIIGaE8D2uLBj8OWvhWGattlDl8QI/QsDK1/YdSsn3EhHXS9rOcHIsts9O/2O6W84Eap7gkMfOPbpxCrNb3A4xEQCJFBzAlcZdirxDgiuX7FFbcvGcsNhhvdBR4jY9q4k+KffvhGA5fyKuCTG1stbReRwA5fEcN8bl4s0n+EAiekdAhbGlFH2cBnORAIkUGMCTyo7aAzGz4rIXc11cnjf20VExsaYYi0Y0/fRDkhzjNj2Wuc0sSKafEQ9sScfik8VXBJj6yhcEmNfelpLfChG2gA3CCDEtIQAgvxonpvota+JCIIQMZEACdSQALa+aS2MsbUwabJ2T2vhJTBp2bOeV2eXxAjdGx1wshwXtfMja/sWfd1wEXnGgGvYFlDcXVSki+bK+5FA7Qhgi1HYEWT5C+UBSkSaNEd5z2g58XY6Mc3NSz4Xa+t1ckl8nLKtsRTBuPa9hfZ9xo6rtHEeepeQ35AACThPANP10QE17fETGWtoGfFskYgMy1iOMi9bPaIM+OqhMSov2Ksfj0+g9WSHZR6m1gQwaEf5a44hfzu0vg2/JQESqCqBG5SdSFb/7EON18ctt62V0dZwSQyDu6q4JH5ORLB3XWu1DjsKptYEEOPD0qEX2oyzLa1Z81sSqBwBGKvBsY7mzQHT2VkTYstjildz/+i1u2UtiGPXoROmS+J35GKqY23jWnFWNXbt/V3XKsjykAAJ5EMALoGjA2iWY1i7a9KpBmUIyw1lpmr7xWHwBcXmypp5IUSbwmPdYI1w1eTaXQ2fIXDHVkMmEiCBihPAHuBw8Mzy958isqySEayP71GWI1r2Mr0EKlF0vRyR3LBtK1rfKh/f1pUITwgJWNrUYNkGToeYSIAEKkzgHOVgYmWgtY7x260LXgLzEBvYOVR5wI/XDQaqTMkIYKbkUUP5eNBAuU9Wcp5FAiRQCgGtARHizlulKnsJtGCEwDzxAbLqn88QkTEW8GqSBwL8WIaxhhEnEwmQQAUJYOpdG+b2Q4ZcYJB4veEg9xsRGWBYvjKzsnae5JPigO1pUFRhbDquzEbw5N4I9WvVvvDxMcuTerOYJEACKQjgbUHbUVivE1oPdD54CezWZNaKkbbNy74ecQGwNLBeN3A1/d1aXl6soGFtTUWD1SaBJQQOUSoAfxWRPkuyMzuC21erQQZbDLHV0Od0qCEPGHd9vrGrAIOoFeMy8/mtiJxIg7Ve4g1jUcvolHDmlMez3qvg/IIESKAYAlqr4VtyLKa2bNFBCcF44HTIx4Roh1pHOlEWUCbCtH5z8MRSSfQcX4/vb25fo0/7d1oYLr61MT6isoClBSYSIIGKEHhI2fGfliMHegl8JzjL3co2inbg8PiI6eFWCRH+0MEj4p/vLonBjNHt3mll7S6fqPzAuBDLhkwkQAKeE8AAq+3oYZWeZ9rW2EugbxHlYL8Q7YA1x1jHxbRwkhS6JL7VmL+m/GmvRUwC1KPuaaCI3GsoR4+JyJC6Q2X9ScB3ApMMOoWVC4BQVy+B1i6S4SkuS/LZJfGPs1S4gtesa+xjA8tzTCRAAh4T0IZofb6gutfRSyBmZ540UNDCt+avGLUVXBLvKyLXGmwfDcuW99/JRnX3PRu49rVkDQ+iTCRAAp4SQMAPTYdQZMAQGKtZGsK57iUQA7ambaLXQpHIY8oWee4uIt82fruMlt3i+OuePp95FPs7hnIFd9S0s8ijlZgnCRRA4PfKzuBTBZQxegtLL4H/EJGNopk7dDxH2S7RQfNfIrJ1AXUb1HQWc7Hx1rNoXbIeP1FA/X25BWZwnjGUr7vkHUNVX+rPcpIACYgI1u6ZlYVkAAAgAElEQVSzdqjhdTsUTBLW6wjyE95f+xcxDFzbLgYjPW1o5iiXUwpuI9wOznmiZSj7GDNHWdLoRoCqmY3ZjWOaHgh3EhHYQ/ie3mds2FmGjPneBiw/CZRKQOtTHrsHythXjzC/lgOkS14CrRUcbIUrQ8E5wDEF4C8pnzTsHMCywVst6gGnUvB9gdmoIgxgUxY98eknt6hbVkUNTCYkvjNPJAESKJ0A9u9nfeBxHfwHlJWq6iUQdgmaNolei7deOBAqI33TsB7ROmU9vj0FhB1FBN4tk9wLSvCdzRkC+FDwKfVrxlZIUs8k5zxXkdkRn9qQZSWBzATwFpPkwW53TtnbgKrmJTBPb3+ZhSTDhZjF+LNSttrJXNbv4SY4SXpvm7f+pPeFN8UTGkaRMFj1IcGAD7MjSevX7TwYGDKRAAk4TgD+vJO+5bR76BFDoMxUJS+BmKaHPUI71mm/7+TtL+82G29Yj7T1bnX+GwlDCcNZjuW2S8yQYW18k7yBK/Pfw7i9DlKWh5eTAAnkTGBDg4d+05zLmCT7qngJLMvbXxLGac85Uilb8FsPB0ihS2KtH/ukAxJ8G7RSICy+g2KB4EtbdXDDnJaz5fmWs2lYemoVHRQRPncWEcj6t5oKL3YjvNqYNfln8x+OFzV2k2AmBctI80VkFxHBtUwkQAJGBPZXdnZvlmRc1qr61l4Ck7rKbVWWLN9Ze/vL2zVztzrCQZBm0ESEwmjSuCSGbCRN1yvLnbTOWCs/T0QmNgbDvkkLl/N58OcA975J69DtvPtEBDMq72n4nzhTRB5V5g0l8IGG0fFZzTxzxsHsSaDaBC5UPpB3OITHZy+B1ssYVt7+sjYvBjTtmvIFHW4+phnp70cigqA07QaiPzSMVNO6PbYMm9uuXPHvcU/4TZjigEK9WRem8bJ3+4y3+W7nZP0dSiK2ZpaxC6mDePInEvCDwD3Kh/Nsx6rpq5fAy5TtEO1A8/L2l6aptzCoT9JgTXBos5eIfLGxZHCziMDnP5QHTDMPSFPo5rmY1YryLPoYA+bXRGS2iMCpUhkJg2rR9dbc75UGpIWNGZURZcDiPUnARwLoXLDmpnnwXPQBbuklsIgtdFXcyqiNLYH95GV15oiUqHkmLK99veleebecXDi367ewgwOKlGVdisgLbfdhR+0r2rHm9yRQCgG4hdU+lGuVUvLON7V2opOnl0Brb3+uODO6SSlbmJkqK2EWQftc5HE9Zia+3wzAhFmPvBNks4zlEAt28Pewdt6AmD8J+Ezg48qODtq2qwnWwpZ70PMYWKGoWBqcwWK6DG9/cRnAtPvflLIFS/mykmveC1sNiJghgf3NUSKSp7HqtIYFvnb3RavyF/EdtjdjayMTCZBACwJaL23YY+5ycn1qvSre/uIyAFew2g4eA09ZabnmFjRtHYq6HsrArSJyuIhgp4R1OsegPYti0eo+Z3BJwFokmF8VCGidnSzwAIKlcd1ThtbGvhorJmlyrW95WPUPTnKjHM/Z3tgSvtXAlMd3eFv/ZdN3gpVLYmzju9dzJQDxHFyYHctRZJk1CSQnMMpgam968tuVdqb19jooFNpUJW9/rVhg/VUzuN3WKtMSvsMMknYpQ8PB4trfigjcH7dyyJMGqbXCalG3tHn8kEpAmibnuVUmgME77QMUPR9vGlAifEiueQn03WFRpzbHm3unfflRGWp3jO1crqR1m4Z3CPbTrry+fI8987Blyeq588AKMLiSywGuPFosR5kEMH2v6bieKLPwGe7tyqBrrYyU7e0v3hRYu9fIFa51MZwsguV8UkR+ZTBzpuVjcT2Ws77Q2OqHoEcwRk2aMKNgcf8y8yjTwDQpZ55HArkSuFH5IH8j19LZZ46Qp3cp6xzttLDNLU3HiRrh7fhxwzKU7e2vVSthUIlySnsMvwtYc3Y5wQvhfiKCKWWtH420fPI4H7t58GY8q8sU+YyKKD9gCCdRTCRQSwIYuF5SdtTYfuRbWqfhNhQR4aw6UVjxp0mWgVYsDRLT1KHbudiKqOEL5zM+JSyDhcqAdulDw83q2pcjykDUiyJ2F2j7DKsyWuQDN9Uu+jDxSfZZVk8JQPC1DxGcCPmYyvIS6PqWRIu2HCki2rVyeBD0NcFzIZQBBEH6h8Ezpn1GtdfDJfEVjR0Ac0Tk5xWoT5zHLzLM4vkqmyw3CSwmsKfyYca057KLc/PrIA/nO9E3pVY04JTI0qMaYsu7mDCtGu9k035G1LgqJDwfmFLH1Doc0qTlwPOLYYbQz0wkUCsCCOCj6WDKdNNq0VArGU9ndvISCIVDa28Rbas83RJr2SIYT7SsaY8xLetKWFwti+j1iLmBt2i8TecZGS8t71LP7zdw2WDljbcKNp7zoWDbg+cFk487N5i+4JKefzjGd/ht5Y23DPoNHJRXWeEtdPloY/GYBKpOAC5ENQ8UQgj7noqaki9ryaGM9nlEKVeYOq96gg+Iqc3Qv5azQprnudBrB48aG/zP3A8HU0/6cjDjlMsS/cO5G8/dP8C1Shlrdf1JVRc61o8EQgLogLThTvcPM/P8b95eAq2dp6Q1OiyyeTCrovUZf0SRBXbgXpjtmCgi54vI8zkMbK0Gu9K+69t/QLDB1N2D6QsvTTTot1IOMEOw/pTdgj79+lvWA4aPQxyQBxaBBHInsJlBR7Nh7qUs5gZ5egmEooWlEquOCssIabcdFkPxnbvsbVDXjYossGP3QttiTz62UWKHh5XcOJEP3tzfd/gpmQf+uDKwzYEnBgOHLG9Zt084Jg8sDgnkQuAQZecCg6Y+uZSsnEytHfNgaQHJFcdDzeLk/kc7m/InxxWc3AHGbrBJ02sfvPdZDnSF5zVspdV61vfjg7j286RjzwyGjh1nVZ8HY/z5kQQqSUC7F/2WClKxHqx3ERFEaLPqnEKlwmX0Tyvri8iUTK0JYCkJ/vy1Phas5DFxPnjzh0GfdrBvd/2kY86wnAnI6iK5davxWxJwkMBDyo76cw7WSVsk6+A8iTvIBG1hEXxIy6fb9RZ+JQ7odhP+3kMAEf6ObUb80/pcsJTTXnlhzd9y2r+dErD1gScEffr163X/BM9W/BosvzCRQGUJYM1b22m45nveqrGsDfbinUuWz656+4szx+CdpX7Ra+iVLU61+2d45zu8ETvhVuMZp2i7ZD6GwV+7Qdv6+3UnzclczojsIuQxEwlUlsAOEWHP+sCsXFk6IpZb9rLyDa/DEsI2nrDG9H1Y7ix/sXzApCOA+ARQxH5kEI0xSxsudQ2m/jXW/mkVhKnzLrRYCsDL0WhdM/BqEnCXANysLvWgpvyMrUpVTtZOezSsYZfgQwIzOFPR1NWHZQ4f2iIs4/DGTgJ4uPu+wZbfTO2Kff5pB3Ht+eNn7pOprDHZZZCgUIr4t3IEvhcT9rQPzHcqR6R3heC2VzugpeUaPx/GXt3cC/cueTnfjFfKFOq+VzlFr8VdC3dJDA9/aZz8aAf+8HrMAhh4DKRToFo8FvWspNbZiM+BWtK0uKWXwPjg3u0zwuHCHsGXdKRSAYDzIDgRYsqfAFwSIz7B10TkFWW7tZVjuPcNB+Wi/640fsu25UpYX9/CnOcvNbxDJQhg7V77cMCGoC5Ju689K2uXvf21anu4781aV1yHfe5MxRPAzpcpInKR9YwX/PcXPfCH9xs/ez+NLOLau4tvCt6RBPInoI3UBgOZYfkX05k7DG5MTT+uHNzSdkY3eeYMB65stcFtLnCmxetbEDj22k5ETheRJ7QyjyA+4YBc9F94CFSWf1F9xYA1rzKB05QPBvwH1C1Zewns1Dm91HgbW9EzwFsoZQo8fHBy5FmzqIoLo04sQ3WS1Y6/TT7+vNIUgMnHndOxbAnqheeQiQQqRwB7hTUPx1cqRyRZhSy9BHbiv1uy4jh11vFKmcJWx5FO1YiFAQGVF8tpCy4uTQGYNv/iTs9Ykt/eogiQQNUIYIoPPvyTPADtzjm4alAS1qefiNylZNeOafi9r8rVzUouv07YBjytWAL/1LSr5woA6s5EApUigOh94WCT9W+d/WTn6SXQF29/8QdioHaquBn5Lp4vP5dP4C+a/sLzJQC8KDGRQKUI7K95oJvORGA1XOcE6/ysylO76zDVCjsDHxPi2LerV9Lvp/lY8RqU+featt3mIK+NAFF3JhKoFIELNQ+0iNxRKRrZKpOHl0BfvP21InayUqbeFhHstGByj4BqyavUbYCz1NsAUXcmEqgUgXuUnfXZlaKRrTJUAJbmdrtSpnA9k5sErta07cobb1maEeBKG70n6exTu/Pq4O3UTaljqXIhAFegKqMeEflgLiXzK1MuASxpryEGAWcWLsmORw4RWK8549dugOz6PdzxluUKuO+AgV3L10W5wcwWEwlUhsDWXQQ+yQNT91CtNAJc+nHA2n0Suel0zoSls+SnkgmgPX5gEC68p803nrt/4bMABl4AUXYGAypZEHl7WwJHKTvrF22L411uMH7EdrVOg5n2t8s9o/IFJQ84msEuAqZyCWCL6x55yHdPOOAFlxSmBGDr4XIjxmifQ8Sl8M0ZV7kSxLs7T0Abq/0G52uYbwGLcgTkk0c8rU0JXB4zlUcALr0/LiLPKBW5jgPu+lN2K0wBeNfknTuWJWE9f1dek/DOJJAPAewz1zwc8/Mplhe5bqP1ipaCPVyQ+hAVD577EBdCI1N1iSrpmpDj7Ra2F9r4DYnavk+//gF88+cdD2DrAz4d9OnXL1GZusjt511rMJaHBDQERokIprU0D0dd92oPFRGt8pSW+40eBAPSBpUCE8QQYCqOwGYigjC3WmPgtPIcDByyfDDp2DNzUwJ2OOaMYOCQYanL1aZP3Kq4JuGdSCB/AtPbCHrSBwbKA5SIOqaywgEf5jjsLyplCl7mEEWQKV8C2La6k4jcomyvpH1F2/OGjh2XixIw6ZgzgqErrNL2vinr/YgHyne+EsPcK0dgQcqHIP4wITRoHRPW4+MsivoMAznsOnA1oaPUsLjW1YpVpFyDRORAEdG2k6aNe12LmYCtDzzBbCYA0/6Gb/4o79EVaX9WgwQWE4ABX6+HMcV3Vy3OqT4HWCfFeryGm/ZaGNm56HoZNgraJaUj6yNKhdZ0dKNtYK/zQsmy21b2sU6/7qQ5wdR5F2ZWBGDtD4M/ozX/sKzY6YQlPyYSqBQB7UCGLYR1Snl4+ws7mbR/XXQTvLfB4DK+TgJVQF3huOeiZryOtDJWyvmYDRg/c59UigCUBuzzX27E6DzKjB0RTCRQKQJw3qN9WOBEqE4pD29/WdvAxUBBWruIP3Od1exxMnXcY9BXpJZzeO1bafyWwfhZ+wXbHHRiMPm4cwK84eMfjvHd+Fn7BiuN3yIw8PDXrnzPiQiWTZhIoFIE4L63ndAn+R4Ww3V6MPL09peEd6tzXAsV/LRSpuCTgik7ATjuwXOdt2OqVrJY1e8+mr05eCUJuEsAAXw0Dy3WoeuSivD2l7UtXPESaDGjdEBdBMq4noU47lH2F1nlu8zr4JAKy35MJFA5AncqH2hs96pL+qySVbQTg93FLsYOhHZzoCFgWR6tZ5bjuseUSNuMhTruMWjfLDJR1jUw/PPB8VZameH5JNBjQf6m8oH+UE04Wnv727XJzdKFsAteAr+llCe4nWVKRmATEbmyDMc9yjYuazBPe1/sZJmdrCl4Fgn4RwCev9I+FPHzN/Sv2qlLbO3tD0ZyYcKygtZnfrRNyvQSiGlSGPBFy5P2OMomZMS/SwiEjntuVXJO2y5Jzofr5+tEZGIjiNNpDpYvSR2i53xuCXYekUD1CByqfEhfE5E+1cPSq0ZYX492DJrjRS32Eq8jIm8Y3qMsL4HYuqdhg2uxhZCpNwFERdxPRB4yYKxto/j1bzVnIqIvA1BULJ+b+D3z/oyyc92/txzymwoR0D6gP60Qi3ZVsfT2hy17WEpolTBoW3VqZXkJhPMeTR0w5cr11qWlY4zDjnvgTAheRFHGVgmzW5gR0MhEGdfCsVkdXmxatRm/qxEB7dtE1afIrL39faaDbOFtA9P3Vh1eGV4C4b5XU364pWV6h8C7HHbcg3C4MPZMsv0XSsDXlHKhkam012LwR5mZSKDSBLCurQ3XOrfChKwHZOzJ7tax4O1X65Ux2uEV6SUQgXsQwCd6/7THddpR0u7Rwfr5DwyezbTsk5wPu4OZGabG8SydrpSNJOXTnIO+EOGnOe3fTjL5faUITDJ4IFeuFJGlK2M9JY83uiRpjkG7hB0hOjUMKEWkLQ3KjeWWOiZMN88SkV8aMAzb3uovZOiHIvJeg4bBC8MrDtbxdRHBc8dEArUhAG1X00k8X2FS1t7+4Do4TdK60o22a1FeArXyhIFmZBpIFTgXjns+ISLY+hhtMxeOYeB7hoisasx5NRG5zaH6/qhhwEi/E8aNzOzcJ/A95UP4HfermKmEcKN6l5JNtAPP4kVssIg8blgGGHvmnW5WlrdOHiVddtzzx4agLBSRETkKDKbZ4bTqWaXMRJ+ztMeoJ3ZVMJFALQngDT7tQxM9H298VUzWjnnQ2WdJ2xp7Ccxzeh1b1LDzICofaY+/kAWSZ9fA7waMzBA/Iy2fvM+HjQriB0ABLioNaVjbnyIirxbMA8sQmH1hIoFaEsDavbZD2b6C5PLy9pcVlbUyktcWO9gZaOVpWlZIjl+Ht93JzXV0bHPUcrK8HssuP2naH5SJEbsJivZxUGX7pTLbkvf2gMDOyo4IHUfVNGjrafevGMiBC8sRSapxslKe3hYRvA1WKfnmuMcV9hs1CoIlCEvvmK2UJhfiZrjCnOWoGQGtm074D6hactXwztogMQ8vgbcrFQBcX5Xks+Me19oAy2fTG0smJ4jI/zZmUu5oLFM8arST4FzXKsvykEBRBLR+xC3ebouqa5L7YHtSq7eELN9hdmRCkpumOAe7CLKUpdU1/xARuOy1Spg5wRt8q3sl/Q5vfL6ntRuGc+cZ2EIkZZbmvCcaPhqOEpHlfIccKT+CIKVhED+3TkanEWw8rDsB7Dn+q/LhObhCEFcQEbg0jXcQWT/DqMk6YR35esMy/kZEBhgVEm9oWVmF11krTEZVS5TNdiJyjbHBZshF+xdvzJjqhpOmqiX0QRo+/2oRk6NqjFgfEuhFAGtsmgcH1yIMaRVSHgNrN29/WblBUdFG2ou2u5WXQOwVj+ab9hi7B7Be7lMKHff8Sln3tKySnI8ZKDju2conoBnKatGPwTiTiQRqReDDyk4LHXaRW4XybJyyvP1lrZOLXgIxm5BkYGp3Dvwk+JLgPhtT6S467oE3OyxBwNFOHRKUd61XwSosPdWhrVlHQwJfVnbYVTHYsjauQ2jlIpKlsSJCE2t2c8BzH9442w3uSb73wZ9E3R33FCHXWe6BmY4kMtbuHGyBZCKBWhHQvrGdVQFavmyva4XaeruixkugdjspOuYtWlXSke+w1AVjMxcd9/y2uXc+ryUnR5qgYzGOVyoAb1RoNrMjKP5IAiAAhxvazmyPCqD8rLLjiL5RIHpfXg522qG2dliUdU80ovdFWaQ9RvRA1wzU6LinndS59z0MMNPKXPz8zd2rFktEAvkQwMARfwDSfl4zn6IVlqv14LlrYSVf+kYueAl8RClP31+6SqV+ouOeUvFnujnaDNta0/Zh0fNh08FEArUgAGGPCn/a4xc9pwQjLkTHS1vvdudjPb6shKlf+G9vV7a039/YIhY61r4RQwAzJt8WkbtF5Lmm73Zso0p7j/j5R5YFL3JfOO5ZYLwVNF7PrJ+xPXW+iKCMTK0JYKtjVr647urW2fJbEqgegW8qHxbsRfc5WRrQFRVmtxNva0NG7IrYsuEwBoF5LKMRtuugLR0SdeLU6rd3ichFIvKm8ploVzfN95hZObC5ZNeq7PxuCYHTle33hyVZ8YgEqk1A+/aLtxFfk+ve/rJytfQSqBm00l6Lt1ustxed6LinaOL53m+WUgGA3K6VbxGZOwmUT2BUYzpRG41savnVyFQCH7z9ZapYcxC19BKYdiDPej5mo4pKdNxTFOni7zPCYCsqIhEykUClCcxQaspQHqBE+JZ88vaXla21l8Csg3qa6xADHjYpGJzzSnTckxdZt/J9WNm3XexWdVgaErAnAEOnNB10/FwEFPEx+ebtLytjGOvF28yHzz8XkXWyVrrNdauKCFwUv+YgE3gR/ITSAVObatf2awzgGlmvYnTT2goDK96awA3Kh+Sq1tk6/a21kRzW211OlkaOmg417bUITrWLAdjNRARyqvV1kbb8Sc7Hjo0P0vGMQSv3zgJT+EnaoN05mN1ctne2/IYEqkMADmvaPQBJvvdtv2wR2+Rckw7rbY5J5MLqHHTCeGtPuySAJZ6ZjRDM2hDXVvWI5gM3yT8QkYmuCUrFygMjvij3LMfYFcJEApUkgFjlWR6K6DXv9YyM797+suK2dnQUlYEijvEGn8S9LR33ZJWQal6H7Xwa+bRehqomZdbKSwKYetQ8HG97tid5W+P47Fhf9yl9RtneGlmxuPY6ERnQBjgd97QBU/Ovr1HIPJxaDak5P1a/wgTOVjwc6NDv8YiN9TR4md7+smK3Xv6wGNTT5vGNmJ8AOu7JKg31uG4fRR93Wz0QsZZ1JXCn4uFAx/0lj8BZGsK54O0vK3q0WdpB17Xz4eUN6+eYEdCGHc6jbrA72CmmqGRtL16nIwDFH67Ks7QzZkiZSKCSBPA2qHV3+iFPyFhuhfu3iGA93ceEiI1ZOkJe050bdhhgdgI7DpjcIvDhDHKPt3/XIlK6RZWl8ZoAOiptx76BBwQQuEa70yHKCevoPqb1RORvBm0eZcHjd3wKYJcCfAwwuUvgnBSyj3gXRYfydpccS1ZJAoekeCBadfRwppJ2a1bRILEVDNHsWpU/y3fYs53EEr3oena7H9rpF4YcsrCr2jVw3PNxOu7pJnpO/X6EiPy9y3PwQ0ZZdKrNWJicCFze5UHo1mH/NKdyWWZbF29/3ZgdqmzrbrJQp9/puKebtLn9+9hG8RaKyP+JyCsigp1M8Gb6VRHZ3u2is3QkYEcAbi41Hffn7IqSS0518/bXDuIw4yWQxTIzpF+/YM64ccEXNt00uH7ixOC+6dODp2fP7vmHY3z3+U02CWaPGxfgXKW8lXl96LhnQjvI/J4ESIAEfCEAy1it9TTC6LqarLe7YRmhjBC1FnzN9/6vNWRIcOammwaPz5oVPD93bqJ/OPeMTTcN1hwypMyBPO29YSR7kYjAfoKJBEiABCpBYAeDt7GVHSZxqkH9wsECBoQwJPQxLd8IMPO6FYtBffsGJ40fHzw9Z06iQb+VcoAZghM32igY2LdvyNfFvy80QmTPF5HRPjY6y0wCJEACnQgcpxwUnu+Uecm/1d3bXxQ/4jSYDLB4c//ppEmZB/64MvCDCROCMYMGmZTNqo4i8oiIHOiZd8toe/OYBEiABLoS+K6y08T1LiZ6+1vSKliywHYm9SA7fvnle9b344O49vPdU6cG6w8bpi6fQR1voeOeJYLDIxIggWoTwBu8puPFDIKLid7+lrTKlso27pEPvPnDoE872Le7/q6pU8uaCaDjniWywiMSIIGaEMDavWbwx7UubpeBUaK2XuH1MJD03eL7C1oeWKe/aYcdchv8Q6Xg2gkTggF9+oTs8/4Lm4jzRGS1mjzvrCYJkAAJLCagdYsLV7iYancp0dtf79Z4TKsAwOAvHKTz/nvM+uvnPfDTcU9vGeE3JEACNSNwmnJgeNAxXvT217tB4OxENaBiq5/G2j+twvDozJl5LQXAcQ9iIPTrjYnfkMBiApNF5AoReVJEsDwET6d3Nbb/niwieJ6YSKASBGDwpBkcXAuDS29/vcVSO8vTs88/7SCuPf9z7363Ri6j19JxT2+Z4DetCayQwF043Acf2fpyfksC/hCAT/i/KhWAgx2qLr39tW4MlR8EeO1L4+RHO/CH1z/WcBY0WO8x8A467mktFPy2F4FxIoLQ3lHlsdPxub1y4Bck4BGBDVMIe7sHYVNH6ktvf+0b4tuadoZ733BQLvrvrFVWaSd3Sb9H3ZlIoBsBhPqFsphUrsLzEFqYiQS8JLB/BoEPBR9/MRXmylqq6i03xsFnb3+tBBHr3tF2S3UM3/5FD/zh/U7fZJNUZW1RTwR5YSKBbgT2biE7SWQPXiKHdMucv5OAiwQuzCj04YMBjdmFRG9/nVtB5ecBQXzCAbnov9dNnBjKWta/z3VGw19JoIfAnYq+EMoDEwl4R+AehdCjQz7bgRrT21/3RnhV0873z5hRmgJw7/TpWQf+8DrUnYkEOhFAH4LtzKHMpP17TafM+RsJuEhg2eb2lrTCHj0f26nKTpcrHtxoXXC8yEGfBhZ8sY0pXtfEnxfNnl2aAvDU7NmJy9mmjojvzkQCnQjAeFgjZ3/qlDl/IwEXCWytFHo8MGuWXDH19rYIA7wBbFNyffK6fZ0VgLfygsp8K0Ngg0g/kFURWKsyNFiRWhA4Win0L5ZMid7+kjeAaqun50sAMOhkIoFOBJZrhHv+r7I/3K/TDfgbCbhG4JtKgb++xArR2186+H/QtPUPSzQCRJhgTdmb+7rT0eLZdSTwkFLOLq4jNNbZXwJwcanpXOeXWHV6+0sHHy5MM7f15zfZpDQbgNP02wDvToeKZ9eUAAbwzM+IiDxcU26stocERhlMeU0rqd709pce/Hc0ndvsEh0BzdQ7AvpGely8ooYEMIWvUQCwhDCyhtxYZQ8JzDAQdigRRSc4HVK9zcbqfVMjuAeWE6qePhOrd6qODu54EZynaB8ARq6A51W9cVk/EwIw4kv1XLQ4f5ZJSZgJCeRMYEEL4U0j/E/kXL522dPbXzsynb/fWdnewRkleAM08AIImd6lMxr+SgKLCahsZUTk9MU58YAEHCZwg3JAuKqEutHbX3boqyjbO1gT4YAL9NtrNkQAACAASURBVAcA3wOrDR6cRiltdS6mZRHdjYkEkhCAQ59WcpT0O1c8oyapK8+pMQFsjUoq1K3OO6pgdvT2pwcOI6VWbZn4uxM32qiwZYDjNtwwcbk61Os+PTbmUCMC6Nc0cgefEwNrxItV9ZCAxVoXnAgVmS5TPpjRhxrhPqFQ1CnB6+PPtAwH9u0bYFte3rYA358wIRjQp0+0zbIen1mnRmZd1QQ21z4jIrKduhTMgARyJLCXUsjhVQ4DSlFprrK80cHjPyIyoaiCO3KfSSLyqBXDMYMGBXdNnZqbEnDPtGnB2EGDom2mOUaHzkQCSQkgJPDrymfl+KQ343kkUAaBc5QCjtCyRSV6+8tOemUR0a5pthx81x82LLg7ByUAisW7hg1rec8MMvtgdnS8ssYEfpJB1qIye12N2bHqHhDQhL2EoH+poDrS21820HiLOVJEVO5/u3WCmAm41nA5ANP+owcOjHak2uPPZsPHq2pOYGE32e/y+ys12VpcczHxs/r9ReTNLgLcreP9UEFVp7e/9KAx5a0N8dyt/Rf/jnX6Y9ZfP8B+/ax2AbD2h8Gf0Zr/4rKJCKIAfiw9Ql5RcwKTlf0jZHCjmjNk9R0lsJmBcCNyVt6J3v7SER7W8EJ2vjKmeXTwTHWM2YDPvfvdqRQBKA3Y57/qcsululcG+b1SRBDshYkEkhAYIiL/yiBnUTk+KMmNeA4JFE3gEKVgvyYifXIuNGYpYGcQfaA0xzdWfEpuNxHROjDR8F18LTwGzlpllQD++6+bODG4d/r0AG/4+IdjfAdFAefgXMM27pbX/SKyTs5yy+yrQ0A7i3ZFdVCwJlUi8FVlpwsDmbwT1m67dehJf4e/g5XyLnBJ+WM7J5SbpCzqfh6su+kVsCRh9ey25yqfK2w1ZiIB5whoncHkbVi1jfE09q7OtYC+QJghgcOSN5SdVB0VAngGPE9EEFOCiQTaEcCsmvb5GNcuc35PAmUQgPMb7IPXCPacHAs+WEQeV5YvWrev5FjWsrJ+n4ho45ZHGdX1+Ocigi2mTCTQigBkQ/tsQIlgIgFnCMAhjFaosbc8r3S5QfnC+i2qmLe/Ec03V60CF/LhX5Hfi0jRHi3zenaYrz0BTONrnhMsIzCRgDMEPq0U6OdyrAm9/bWGC18IiFP+orLtNB1Zla+FtfdxrdHz25oTgCGfRvZhSMhEAs4Q+J5SoP83p5ogWtsLyrJFH9RTcipn0dmu1/Ar/lNDLlFGPF66c/+GiGAJiokEQgLYyqd5Tv5dsVnIkAv/ekoAU54agf5UDvXGG+71ynJF6/QbEYGRnM8JcRbgjQyRxaJ143G+PB4RkSJ8XPgsm3Uq+4YGzx+cCjGRQOkE1PHgRWT7HGpBb39LQ50uItq1xyyKAvwI7CkiVxl0elnu78o1fxGR2Us3CT/VlABeTuDWVyObUOSZSKB0AjsrBRnGZ9YhdK29/R1aOuXsBYCvAnis03Q2Wa5Fu14sIvAkiIROT+sLPUs5XLqGWwXfkQX+L4LAPhrZLMJvCtuJBLoSOE0pyNaR1ejt750mKyRwT5u2h5HSe9pIzu4NXwN4G9Z0fnlciwBH8EVRRNlgfzGmDR9+XQ8CMBDVyDF8ddDnRD1kxela3qIU5MuMa3eqsjzRhxLe/nzc043BV+tyNMoh6TEGUUQLhPLRKa0uIrcZtlPS8rU773YRWbNZYLj1hXvfdudafY+dL1t1gsTfKk1gWwMZQ4AuJhIojQB892tDw1oGt6i7tz9Ym59u7PEw6YD3QxFZNYUkhtsQ/2TQESYtY/w8rMPC82E8BsUgEYGzp/j51p+5VTCFwFTs1IGNbaL/UMoYZJeJBEojYGHNuqlR6WFHYGnkZj0zYVTNttmUFbgHjpFmtC1V9x9gI3CygVFUmsEZA/98EVm+S/EQ8hehf9PkneVcRhXs0hAV/RkzT1nkJbzmmopyYbU8IbC/UoD/briOhQE7fDC0f6FIWBsm5tWkZQXu+aeIfM4wHC5CpX5cRLBlTtt+7a6Hq2MsUaRpW0zTY7q+XZ5W3zOqYF5PiLv5au2n/uhu1ViyOhC4UNkx3mEE6QPKckQ7cTjZwFKC62mAiJwgIm8a1j3KodMx1u83yhEQZoXOEJEHGm/qsJzvVJZuv8HIFB3texXlhcEerK673Uv7O7cKKhrJw0tnGsgUXgCYSKAUAlpDs7MNSg0jPRjraTvf8PrPGJQp7ywmiIg2+mJY3zR/X268DX+kuaUv7zqG+Y9uGOVBwcOUPXwJ3N1c6nm1OT2PdXQcPy8i/yci32oYIaINZ4nI2DATg78wbMSMh1Yh6cYb+eM+3QwpDarELEomMNJAnuDOm4kECicAr3KYBu7WoXX6fQ9lqevm7a+swD0YlLBOza1rIjs1FY5Ocm3xG6MKKjsHTy7XRuCErw0mEiicgMU2ljWUpa6Lt7/QYr6MwD0Io0y3o0sLalFbBRlVcGnuVfx0kfIlCjOBTCRQOAEYbGnedDCYaVJdvP2VFbgHtgXw3IftSky9CXCrYG8m/CY9gX2V/Shm50alvy2vIAEdgW8qBRf7xrMmeMC6S3n/qPJyU8Hr2knqXWbgnlsba+nvSlJIniPwY1HEVkFGFaymsMGIL9oXZTmGvQsTCRRKQLvn/iRFaeGyNcuD0uoaGBDCX75LaZKIPGpYx1b1bvUdthXRqCi9JMAj29MFtBejCqZvGx+ugAFrq+cx6Xdw/sVEAoURwJST1hp6asbSVtnbnyuBezI2Ta0vw24FzCQl7bSzngfPm7vUmnT1Kn+1Um6stlNXjyxrlAsBeH7L2oHhuqzrVnB1C6M0zb2j18LdqwsJrmgxlax1qxytW9Lje+mT3kwEsHUPdhOIhJiUf5bz8PycZ+hEywwAM8pEAM6psshBeM1bDRfgsElhIoFCCGjDumIQz5IuVz4o4QODv3Bhm8YjXJbyJrkGTm8s7Rmidex0/LeGL3JEJON+8yStlO4cbhVMx6vuZ2MJqdOzmuS37eoOkfUvjsCNSoH9eoaizlXeM/oQ4Q0NznTKTD4F7imTk6/3RsTDXxvKbFR+o8fcKuirhCwpN5Tw15WyAmWeiQRyJ4A96VrPe5jySpNWEJEXlA9ItNM8Jc3NczgXVrtF+JeP1hnH2sA9OaCodJbcKljp5jWt3M3K/u0609IwMxJoQ2BtpaBiIErjl71K3v7KDNyDNWME3GEqngB2VhQRs4FbBYtvW6s7LlD2q3CHHQ9rbVU25kMCiwnspRRUuA/GHvekqQre/vo3486/oWQXf6NP8hkhR/MM3JO0Het+HrcK1l0COtcf3jaTPM+dzuFz3pkxfzUgcI5SUBHMJWmqgre/94mI1t93p4e+3W94IziKbwVJRa2Q87B9llsFC0Ht3U1gE4TAVu2e5yTfYycREwnkSuCXSiH9YsLS+e7tj4F7EjZ0zU7DkhYMtrhVsGYNn6C62uiqVyS4B08hgcwEMJWtXctM6mnOV29/DNyTWbxqdSG3CtaquRNV9lzlyxW8szKRQG4ELParYlq/W/LV2x8D93RrWf4eJcCtglEaPN5NqQBgmWAcMZJAXgQOVQroawnWpH309sfAPXlJXPXz5VbB6rdx0hquqOxfoQBAiWAigVwIfFUpoD9JUCrfvP0hcM9jSi5JDHzi5zBwTwJh8ugUbhX0qLFyLKo2yBqWEZhIIBcCDysHulO7lMonb38M3NOlMflzagKbMapgamZVuwCGfHFlP81nGBIykYA5AfjN11ouz+lQKl+8/TFwT4dG5E9qAtwqqEbodQbYypdmwI+f+29HYpx43QgsfG8CmOqOC1vazyv3zrbnG1+8/TFwT5sG5NemBLhV0BSnV5ltaNDPwqkQEwmYEvi0UjCf7VAa1739MXBPh8bjT7kR4FbB3NA6mzGUP22sFURrZSIBUwLfUyoA/9umNK57+2PgnjYNx68LIcCtgoVgduomCOyTdnY1en4SY2unKszCuE8AYUejQpb2+JMtquiytz8G7mnRYPyqFALcKlgK9tJuCk+RafvX6Pl/ExH0rUwkYEIAziWiApbleGKLkrjo7Y+Be1o0FL9yggC3CjrRDLkXYluD/hZO25hIwITAzkqBxO4B7CKIJhe9/TFwT7SFeOwiAW4VdLFVbMs0sBEv4h/KPheBwJhIwITAaUphfCBWCte8/TFwT6yB+NFpAtwq6HTzmBQOYbyzzLSG11xjUgpmQgIicqtSGL8So+iKtz8G7ok1DD96Q4BbBb1pqkwF1b50/SnTXXkRCcQIwPHNX5UKQDROtSve/hi4J9bQ/OglAW4V9LLZuhZ6prLPxUwADJmZSEBFYCMDQdykWQIXvP0xcI9KHHixgwSwVfBug+c0nD5u9xc7gbZ2sP5VLBKWJbWeV5OGXq8iP9bJiMCHlR3L35tbUjBleb0yr2jH9BsRgcV+mlRW4B5Mx/FhTNNSPDctAW4VTEvM/fMfUvaXF7tfRZbQdQJfVgrhbc0Kluntj4F7XJcyls+KALcKWpEsP5+LlH0vgrcxkUBbAmNEZIqIHCEiXxIReJCCxT5CUr4qIm8rBRBv7GeJiLW3v4+1rdHSP/Rt1ONIAxuG6MxD0mNE5XrP0sXhJxIohMBWIvKcwbPbTdbvF5F1CqlRPW+yr7IN/ysiI+uJjrVuRWA5EUFEPsSMxkAPAen2kGt/30dEfm14nxtFBMsJ3RIGXwzC2vKnvR4Gk1A6oHwwkUBZBKDcQ6FPK79pz/+LiMwuq5IVvy+M+NK2R/x8uDJnqjEBWPFvJyJYD9Ja88eFK8nnqwyEOLwPgmRgOr9TYuCeTnT4W50IcKug/639vLL/PN1/BKxBFgIwCjq0OZ0fDqBl/EV8aqv7fqALiN1F5A+G90ta7kUNK+wZXcrGn0mgLAJ4Q8ebelJ5znoeZhww88BkR+BqZbvBoRBTjQhgmv8YEfmjUnCydgJ5XXdZhzbEVNmPSqjvP0XkcyIC5kwk4DIBrNXfV8AzAtsD2CAw2RDAcqKmT31LROBamKkGBLDe87RSYDTClte1eMOOxxJAc4aBexD9Kq97t8sXmjV8JDCRgC8EuFXQl5ZaUk4E9WnXByX9HkvATBUmAEcg2hjSSYWp6POwhIDAQfE0QUSwzaXo8rzcsLD+SEJDxHiZ+ZkEXCCApUG8Geb97FzJ2TF1cyOs7+vKtkJ4YaaKEoBVP7bs5f0wl5X/KbF2Y+CeGBB+JIEMBBhVMAO0ki65Wdm/4+WQqWIEsK5zXkFb+coa/KPe/mDRDCcnLyofhix1eVxEJldMflgdEmBUQT9kYIGyz8MLInaDMVWEAJw7/FIpFFkGwiKvgQvhdzXbC2vt8ChY5P1xrzdF5ISGod+AisgNq0ECcQLwV/HZAl4k4HME96F/jHgLdP+Mlw9t30d7pe6cvTgD++DhgUsrEK5fj3VKBu7xQiRZyAoQKDKq4NgK8CqyCvBt8i9lnx+NyFpk2XkvQwJ4I35WKQiuD/woH7z9oUOC9X/R5YUfAfgTYCKBuhHgVkF3W1zrTfUKd6vGkiUhMK4mgz8G/DtLGPix2+ACERmWpDF4DglUlAB8WmCwyFvxxi4EzPIxJSMA9+2aNkF8FyZPCQyvybS/RsA1195L5yWePhksdl4EGFUwL7LZ8t1NqQCgf8RLJJNnBGDtX8YbsWZA9eVaBu7x7GFgcQslsCWjChbKu9PNYPul7VehRDB5RgDT0tqG5/W9Gf5QRFb1TBZYXBIomgC3ChZNvP39nlSOBVhGYPKIwC7KBk808A8ZPSwYP3urYNqCvYJ9rjwmOOJnpwXHPfDF4KQnL+35h2N8h9+mzd+z51xcU0TZcrgHA/d49ACwqE4Q4FZBJ5pBbZuB8OhMnhCAe9/cIngtO3xwsOWH3h8ceN38YOGzX039b8EzlwcHXHtSTx7IK4eB2jpPBu7xRPBZTGcJMKpguU2DrXyafhFbCYeUWwXePSmBXHz7D1txRM9b/Am/uyj1oN9OUUBeU0/aMxg6drhGOPO8Fk6E6AgjqeTxPBJoT2BtRhVsDyfnXzZUKgDoY+nRNOdGssge/v1NB8Q+/foEW314x+DTj3zZbOCPKwQnPnpxsP3Rc4K+/fuZll3BAi4wj6IbTAuRZB4ksJgAowouRlHoAdyha12hLyy0xLxZagLYh2sa0nfUWisGB9+4MLeBP64IHHzDwmDkGiuUqQTA7ehXRWR0avq8gARIICmBQxhVMCkqs/O0M8M/MSsJM8qFwDGKN95eg+4GUzfP9a0/PviHnz/98IXB+lM27VUey7q1yesREZmYS8swUxIggTgBbhWME8n3M0L7avrVN0QEIYaZHCSAPf9wRatp4MXXbrLbdsH8py4r7M0/HPzDv/MXXRa8Z+/tF5fHql5t8kHgHkxvgSETCZBAcQSwVfDHbZ5Ly+cffjuwM6rOaVsDzpvXGaDLdYdrTJMHZvO9ti9t4A8VAPzFboHN95xoUqcObG6NRA50uX1ZNhKoKgGsT+Pt9D8dnlOLfgDLewiDXte3WLzg/EPJGHZRTI4RQLxm+GtWPySY9sfbd3QgLvMYZclpOYCBexwTYhan9gRm5bl9OdI/Yi17TE1p3x7hkGW8uKam3Jyu9g7KRu0RBBjfYf29zAG/1b1PeOSiYPRaK2YR1lbX4C3jYgbucVqeWbj6ElhNRO626M+65PG8iGxdQ8yndeHSqs+MfvenGjJzvsqXKxs16Nuvb6HW/q0G+k7fYXcAyqitp4h81/nWZAFJoN4EGFUwv/afadCHrpVf8ZhzWgLLishr2kbd7tAZzr35xxWCbQ6cZqEAvC4i2IvMRAIk4DYBRhW0b58RBrYWaBcmRwioHf/Aw5+ld7/4wG31GY6IhoxZ3kIJgBbMRAIk4D4BbhW0b6OHlC+MWEJlcoQAojSpBkUE6bEapPPOZ8q8PVR1bbK60JG2YzFIgAS6E4BTLhjuWTz7nfJA/BTELKh6ukjJEgoEkyMEHtA05nIjhnjx9h8qFjAINAggRAF2RHhZDBJISIBRBROCSnDavpoxQ0SwnXJkgvvwlJwJYCsLGqOTVtvxN0T1CwdXX/5usd+kjnVKwAPM4ICEiQRIwC8C3Cqob681E/SR3fpYtANTyQSmahsya0jfMpWFA66d1004k/w+reS24+1JgASyEWBUwWzcoldpvcaeHs2Mx+UQOFKjAAweNazH216Zg3mWe8ND4JDRw5IM8p3OObqcJuNdSYAEDAgwqqAO4tWasUNE4FCIqWQCX9I04sZztvJu+j9UGDaauWWnwT3Jb18uue14exIgAT0BbhXMxlD18tiM5Mjt1NnYm12lsoydtmAvbxWAqSftmWSQ73TOT81agRmRAAmUSaCorYL3icg6ZVbU8N6baV4em9duZ1geZpWBwIOaRtznymO8VQD2/trHOw3uSX7Dw8xEAiRQDQKMKpiuHbGrAk7RkvSV7c5BACemEgk8rWnAI2/7vLcKwBE/P72dUCb9/vclthtvTQIkYE8Ag9qp2p1RCfpU7CL6rIjgfj6nmxPUtVN/ep3Pla9C2V/WNOCn7rvAWwXgU/de0Ekwk/z2tojsIyKYCoM7ZSYSIIFqEOBWwWTtuEAzfojIKyKCUM5MJRHAIJZksGt5zklPXuqtAjDviUtb1knB449Nb2OIF36QiGB9a3BJ7crbkgAJ6AgwqmB3fu9X9Jdh/7tR99vwjLwIUAFQKEAJhZ+KQV7Sy3xJIF8CsFK/NOFzHg5oWf7+S0R8XA/HCw7KnqXO4TV4WWIqiQCmYMKGSP33uPu/6O0MgMESQGpeMdZUDEoSet6WBFIS4FbB9sB+HevX0vaLV7TPmr/kTUBnBPiLWhsBphX0JOf/W0SeEJFrReRzjeO9RYRTZHk/BcyfBLoT4FbB1ozOUSoAT7XOlt8WQUC3DfCKT3g7A2CwDTDJgG51DtxuzhORoUUIBe9BAiTQkgCiCmot35P0CT5FFdxNqQCAx8otafPL3AnQEZBiCcRA8JN0BtFzMDuwce5SwRuQAAm0I8CtgkuTWcmgH4QSwVQCAZUr4PGzPXYFvNMW0YHVp+OXRGTdEmSFtyQBElhCYCcRedVg8OvW9/xcRMYuua2TR08qOZzrZK1qUCiVP2efgwENHjW024Pn8u+/Uuyfxb5b2BXMaP7DMffi1uBhZxXNCXCr4DtIYcin6S/vMW8ZZpiIwBRlwwUH/uAk7+wAPvr9EzXC6sq1cxK18JKTYD9wsoi0CuMJr4Zw6jFkyek8IgESSEAATsC0A2CSPuUtETk0QXnKOAVb+ZLUod052ErIvqeElhujdXu55X7v904B2GLfHdoJok/fX5NCXmA3sCjBQ/qciGyaIl+eSgIk8A6BQ5oR7vLuQ64UkeUcg75hgr6lG5fJjtWpNsW5X9N4yw4fHJzwu4u8UQJOeOSiAGXW1NmRazGgJ0lrigjsBpLWGb4hqhKxLAkfnkMCVgTqulUQS4gqt/KNBlho1QjMJx0B7T7OAKF1Fz77VS/+TTlxj6QDoevn/SNBM/cREayvpa3LXQq7ANwTbwTwpz614dNgExFh3O8EjcVTKkGgrlsFEdgnbT8TPR870phKIDBb2XDB0LHDA7xZu64EfPqRLwdDxiwfFTqfj19MICu7KNr2Awnyj54Ct6CwMYA9QZxrKwdHWGpgEKUoQR5XhUAdtwrClXH8uU/z+Y1GJMZ+VREAn+qBTvivysYLtj14uvMKwNYHTk0jkK6fe2sCIfuOol2vTpB/eAp2EmTxKknFICTIv1UkUKeogtsq+pqwr928ikLgQ50u0zZe3359g4NvWOisEnDQ9QuCPv36hIJWhb+fSCBYMOrLWtdnEuSPU9bOYT80FYOE8Hma8wTwfNyneA6TPr941rcqkcbARkAjLEsmLW+r844qsfy1vvVEZcP1NObINVYIPv3whc4pAcc/dGEwcvUVWglclu9OEZHTGtbyPxAROMD4jwW7lHnA4CaJW2BsHcpSR1yDa7slGP9og4GkKR8Vg24twt9dJFCXrYK3K/ob9ANpdja52M7elgkdOYIypOmMW567/pRNg/mLLnNGCZj/1GXBuyZv0rKsGer7aAvjODzcmzWUgX0KUgz+KyI7J5Q02AlkrfufE9wDdgJZ87e8jopBgsbiKaUTqPpWQbwYaZ5r+ChhKokAhFPTeIuv3XzPicGCZy4vXQlAGTbbY8LichnU77AUbZOHYoCB7mMpynCbos5wQdotfVuRv2W7tMuLikG3FuTvRRPAVsFnC3husOxQ9HbemQb1WqvoBuH93iGANZxWXuLada4dv9/sgxNKnQnAm7/x4I83Yli6a1NWxQAPNJZq0qRjFQ9k3jYGHeVHUe4k+VIxSCNFPNeaQFW3Co40WBLdzxo280tOAJ1+kg400TlYDijDJgBr/obT/mFdETchzxRVDD7bCJF5iYh8rfFAnSQiW7dYekhSFtgJvJChTbF0MCzBDd7MkHfI08W/VAwSNDpPMSFQ1a2CDyn7hItN6DKTTAQwCCVxGZu484ZhYJG7A2Dtb2jwF9YTFvGYIfExIdQm7AbCunT7m8bGII2HwW73dfl3KgY+Sr4fZa7aVsGLUvQ1rZ55KBBMJRKwWMdZqmGxRXCbA6fl6iwITn6wzz+nrX5zS2wPi1tj9gKD2FLt0uIzzklj56C1+u1WHtd/p2JgIZ3Mo0pbBfdt0a+keY7xAoKlBKYSCVyrbMSWDQ4vfFPm7WGqCMADIdz7Dhk9rOU9DeqB7X5VSNt32Y98r4hMSFlR0yUjg7bKSwbS5kvFIKUg8fQer5hViCqI2CNpn5f4+ZgVYSqRAOJcv2rQkPGG7fmMYDyIInjAtfMy7RaAdT9C+m6x36Rg2eVzDewDBquW2A7Wt4afftgTzG/UC86f8A82Bu8VEfyWNg1v7ErQbDVsKR95yZ0D+VIxSCth9Tu/ClsFtcbkp9ev2d2rMaa906wdZ+rMB48aGmw0c8uegEJ7X/Hx4PCfnRZ86r4LgpOevLTnH47xHX6bOu+DwUY7bRHgmoI6c/jSZ+pMYPci5KSg9i5KruL3oWLQWcbq9qvvWwXhRjwu42k+Y2mRyQEC5yobMk2ju3bulx3g70sRktoYuNbGrpcHXiafaERUxJLc5xrHezc8UDKIki9Pha6cPm8VRH9g8Wy93ZyJhpO6B0QEEQO/JCJHiMiUxvEYHWJe3Y3AABGpo6HXzxodLurOlJzADl1sDCw6BObxTsdKxSC5XPp8pq9bBeEZtYhnFTPU94sIXlRhN4BdbEzGBEaIyIMFNWgRQtPtHo/RCjWzBMGlNKKCISxwmbESurVxVX+nYpBZdJ2+0Letggjr+3oJYwai2sKuCQ7T0BcxGRFYRUSwF76qHWdYL9RxdSNmzOYdAlEHR2UHUQrbuW5/qRj4/zQWuVUQNgiatJwDL41YNoBBpa/+WzT8c7l2vYorAQinST/UuYhOy0ypGJSvUFMxaCmazn6JZwbeQfNWYBEJ9NAMFDDwY2sw3KbnXcak+WNHAsrE5YEMDRq/BDMBVVwOeKTxYK0Rryw/l0KAikH5nWdUMcCsDYwPsa7LTrSUR6LXTV3cKogdU0UEOUo68MfPg4db+hfoJUrpv4BNQJUMA3/BNf/0QlDCFVQM3FAMnmzuSqBiUMJDELmlK1sF4Sflxw698ccH/vhn7KiBnxsmBQFYyJ9Tgf3f59PaXyEFblxKxYCKgRuSWHwpyt4qiJmhv3g0+IfKABy8+e7evXhpa3FHQMzNY2COgvWaiCBIDlN1CVAxoGJQXeleUrMytgriBRB+UsIB1ce/2EKI7YPc7r1EljIdYQro+x4JA8q6cqaa8qIqEKBiUH7HDRsDLiXYPk1FbhW8zaP+vptyguVsLGszKQnsJCLYetENeFm/o8PZWVlHXl5dAlQMyn92qRjonq+itgqW1YfndV8YtsPAnUlJAJ3oUSLye4cUMXO1ugAAC7FJREFUgReariM51aNs3JpeTsWAioFPog95LWKrYF6DcVn5wgcMtrozGRCA84WDmn7My2rQR5tlwAPBRALWBKgYUDGwlinL/IraKlhW/57HfaEEcCbAUArhjvF9DaiXiggM7/JotGiecD/5VRGZlDG8rWHVmVVNCVAxyP85jz7zrY65lPDOw1fUVsFWbeDrd1gOoE1ADp33IBGBncBZInJvIw49HlILIfldo8HOE5EZIgJPVEwk4CIBKgY2z7umz6ijYlDUVkFNu7h2LQwDuWSccy8KwdxRRA4TkQtE5OZmNDkYEr4iIggFiTjp2GYId44PicgNInKRiHyy+ZY/POcyMnsSyJsAFQMqBnnLWFFbBV0byDXlgZ8bJhIgARIohQAVAyoG1oI30zXHPSuMHBjsvuPKwVlHbxhcf+4WwUNXTwz+fPOOwRu3Tev5h2N8h9/OPHqDnnNxjdHscad84CeAzoKsJZD5kQAJqAhQMXBHMUDIa7hE3sejWAnYKogl2E6DX66/jRzWPzh019WDOy/fNnj7VzNS/3vrlzOC27+yTU8eyCvHumD2GX5umEiABEjAaQJUDEoc1JqDUGhj4LpiAFkpfKvgymMG9bzFv3rr1NSDfjtFAXmdcdQGwUqjB+WlCMBxHBMJkAAJeEkAxkwbNV1fLxSRaxrHDzfta/LqNJlvb2XkjyLyk6bBMrZIbycig0uWqP1E5M0c36B75KBf32WCw3ZfI3j5lilmA39cIfjLz6YG8z66bjCgf588ZA9LJ0wkQAIkUBkCnDHoPUjnMXh0ytOFGYNctwquu9rg4K4rtstt4I8rAv/3tW2Dtcct14l5lt9gmI7nhYkESIAEKk2AikH9FINctgrOmbhirm/98cE//PzST6cEsyaMzTLQd7oGHm6ZSIAESKCWBKgYVFsxGGK5HHDA3NWCN++cXtibfzj4h39x74/MXrXTgJ72N7i3h4dbJhIgARIggSYB2hiUrxhgMNPaGBxsZQuAwT8ciMv8i90CH51jqgTAdoOJBEiABEigCwHOGJSvGCS1MYDLdhiGpn0r7nU+pv3LfPOPKxwoi+FywBMiAlZMJEACJEACGQhQMTAYaJWDdVwxOFmZX48iAIO/PC3944N70s+wCTA0DERsGyYSIAESIAFDAlQMylcMer3RJ1UM+vdbplBr/6SDf3gedgegjEnr0+E8BLZjIgESIAESKIAAbQw8UAyO3XdtJ9b9wwG/1d+j91rTQgFAVFsoq0wkQAIkQAIlEeCMgSOKATz8WXr3azV4W3yH5Ymxo0ziCCCqLRMJkAAJkIBjBDhjULBigCA9FgN0EXmcfvj6FrMAZzom8ywOCZAACZBABwKcMchBMRi1/AAv3v5D5eKVW6cGBgGEEEyJiQRIgARIwHMCVAwUigGi+oWDqy9/D9llde0sAHZRwHsiEwmQAAmQQAUJUDFIoBhkDelbprJw26XbaBUAXL9jBWWeVSIBEiABEuhAgDYGTcVgzIgBAbztlTmYZ7k3yrzCSLUx4GEdZIQ/kQAJkAAJ1IhA7RSDPXZc2bvBP1QYdn3/StpZgPNrJNusKgmQAAmQQAYClV1KOOvoDb1VAM44agOtAnBTBlngJSRAAiRAAiQg3s8YXH/uFt4qAD84awutAnA/ZZgESIAESIAELAl4M2Pwu+9s760C8PA1E7UKwCLLRmdeJEACJEACJNCOgHMzBn+6aUdvFYA//GiyVgF4qV1D8XsSIAESIAESKIJAaYrBG7dN81YBeP22aVoF4K0iGpf3IAESIAESIIG0BHJXDKgApG0Snk8CJEACJEAC5RGI2hi83SHsbdc35D/+eLK3MwBcAihPAHlnEiABEiCB8gk8p1EAHvlfGgGW34QsAQmQAAmQAAmkJ/AbjQLAbYDpgfMKEiABEiABEnCBwI80CgAdAbnQhCwDCZAACZAACaQncJlGAdjdY1fAu0yiK+D04sIrSIAESIAEqkLgaI0C4HMwoDHDB3Q1cuzChsGAqvIUsB4kQAIkUEMCO3QZ5LoOkndcto13OwF+cenWXeuVgMvkGsoLq0wCJEACJFARAiMTDHQdB8tDdlndOwXg4J1X61inBEz+IyKjKiIDrAYJkAAJkEBNCTyeYMBrO2COHNY/ePXWqd4oAa/cOjVAmTV1FpHf1lRWWG0SIAESIIEKEThPORgGCK379q9mePHvtMPX1w7+uP6MCrU/q0ICJEACJFBTAlO1CsBKowcFeLN2XQl4+ZYpwdhRAy0UgBk1lRVWmwRIgARIoEIEBonI37RKwCf2Xst5BeCoPde0GPz/IiJgxkQCJEACJEAC3hP4ulYB6N9vmeD/vrats0rAr766bdCv7zIWCsAl3rc2K0ACJEACJEACTQITtQoArl973HLBSz+d4pwSgKn/dVcbbDH4I4/tKDUkQAIkQAIkUBUCy4jI7yyUgFkTxgZv3jndGSXg73dMD3babgWrwf8JEQErJhIgARIgARKoDIGjLBQA5PHROasGb/2y/F0BKMOHZ61qNfgjn4Mq09qsCAmQAAmQAAk0CcCw7fdWSsC+M8YFePsua2cAZiEOmKt2+BNVHp4XkYGUFhIgARIgARKoIoEjrBQA5IPlgDJsAl78yRTLaf9QCTiyig3OOpEACZAACZAACOAN9zlLJQCGgUXuDoC1/1qrLBcO2lZ/n+TWPz4gJEACJEACVSewi6UCgLyw/e6w3dfIdTYA7ojnfXTdYED/PlaDfjSfnare6KwfCZAACZAACYDA96yVAOQHL3yfP2IDU6+B8EB4+uHrByuMNPHwFx30w+PvUiRIgARIgARIoC4EVhaR1/JQApAngvEgiuBtl26TabcArPsR0hd5jBiqDuwTDvSt/r4iIuPq0uisJwmQAAmQAAmAwB55KQDRfMcMHxDs+v6VegIKXXf2FsGDV08M/vjjycEbt03r+YdjfIffvnDkBsEuk1YKcE00j5yO/ysisygKJEACJEACJFBHAmfnNLgWMYBr73FmHRucdSYBEiABEiABEOgvIrfVUAn4RbPulAISIAESIAESqC2B0SLycI2UgAdFZERtW5sVJwESIAESIIEIgVVEZFENlAB4+1s1Um8ekgAJkAAJkEDtCaxt6SrYQWXiGRFZt/atTAAkQAIkQAIk0IIAtgfe5+DgrTX4e4jb/Vq0Nr8iARIgARIggQiB4SLyswopATD4Q52YSIAESIAESIAEuhBAzIAveq4EYJ//WbT279LS/JkESIAESIAEWhCYIyIve6gIwMvhri3qw69IgARIgARIgAQSEoCr3Os9UgLg25/ufRM2Lk8jARIgARIggW4EJovIIw4rAk+JyIxuleDvJEACJEACJEAC6QnANuAYEfmDQ4oA9vYfKSKD0leHV5AACZAACZAACaQhAEXgQBF5okRFAPc+SEQGpCk4zyUBEiABEiABEtAT6CMi2zVc654nIi8VoAzAuO9KEcFyxDL64jMHEiABEiABEiABLQHMCswUkXNE5F4R+Y+BQoA8fisiiNyH9X1O82tbideTAAmQAAmQQM4ERorIlMY2wsNF5AIRuUlE7hcRGOu9KiJvN/+90vwOHghxDs49rPmWPyrnMjJ7EiABEiABEiABEiABEiABEiABEiABEiABEiABEiABEiABEiABEiABEiABEiABEiABEiABEiABEiABEiABEiABEiABEiABEiABEiABEiABEiABEiABEiABEiABEiABEiABEiABEiABEiABEiABEiABEiABEiABEiABEiABEiABEiABEiABEiABEiABEiABEiABEiABEiABEiABEiABEiABEiABEiABEiABEiABEiABEiABEiABEiABEiABEiABEiABEiABEiABEiABEiABEiABEiABEiABEiABEiABEiABEiABEiABEiABEiABEiABEiABEiABEiABEiABEiABEiABEiABEiABEiABEiABEiABEiABEiABEiABEiABEiCBNgT+H61ZGmFh6nwLAAAAAElFTkSuQmCC;" vertex="1" parent="1">
          <mxGeometry x="1190" y="630" width="80" height="80" as="geometry" />
        </mxCell>
        <mxCell id="vRciWjVbwueQEASU_ol6-2" value="&lt;span style=&quot;text-wrap-mode: nowrap; background-color: rgb(255, 255, 255);&quot;&gt;Machine Learning&lt;/span&gt;" style="text;html=1;align=center;verticalAlign=middle;whiteSpace=wrap;rounded=0;" vertex="1" parent="1">
          <mxGeometry x="1190" y="720" width="100" height="30" as="geometry" />
        </mxCell>
      </root>
    </mxGraphModel>
  </diagram>
</mxfile>
